<svg width="342" height="8" viewBox="0 0 342 8" fill="none" xmlns="http://www.w3.org/2000/svg">
  <path d="M8.57382 0H16.195L7.62117 8H0L8.57382 0Z" fill="#EE9C3B" />
  <path d="M25.7214 0H33.3426L24.7688 8H17.1476L25.7214 0Z" fill="#EE9C3B" />
  <path d="M42.8691 0H50.4902L41.9164 8H34.2953L42.8691 0Z" fill="#EE9C3B" />
  <path d="M60.0167 0H67.6379L59.0641 8H51.4429L60.0167 0Z" fill="#EE9C3B" />
  <path d="M77.1643 0H84.7855L76.2117 8H68.5905L77.1643 0Z" fill="#EE9C3B" />
  <path d="M94.312 0H101.933L93.3593 8H85.7382L94.312 0Z" fill="#EE9C3B" />
  <path d="M111.46 0H119.081L110.507 8H102.886L111.46 0Z" fill="#EE9C3B" />
  <path d="M128.607 0H136.228L127.655 8H120.033L128.607 0Z" fill="#EE9C3B" />
  <path d="M145.755 0H153.376L144.802 8H137.181L145.755 0Z" fill="#EE9C3B" />
  <path d="M162.903 0H170.524L161.95 8H154.329L162.903 0Z" fill="#EE9C3B" />
  <path d="M180.05 0H187.671L179.098 8H171.476L180.05 0Z" fill="#EE9C3B" />
  <path d="M197.198 0H204.819L196.245 8H188.624L197.198 0Z" fill="#EE9C3B" />
  <path d="M214.345 0H221.967L213.393 8H205.772L214.345 0Z" fill="#EE9C3B" />
  <path d="M231.493 0H239.114L230.54 8H222.919L231.493 0Z" fill="#EE9C3B" />
  <path d="M248.641 0H256.262L247.688 8H240.067L248.641 0Z" fill="#EE9C3B" />
  <path d="M265.788 0H273.409L264.836 8H257.214L265.788 0Z" fill="#EE9C3B" />
  <path d="M282.936 0H290.557L281.983 8H274.362L282.936 0Z" fill="#EE9C3B" />
  <path d="M300.084 0H307.705L299.131 8H291.51L300.084 0Z" fill="#EE9C3B" />
  <path d="M317.231 0H324.852L316.279 8H308.657L317.231 0Z" fill="#EE9C3B" />
  <path d="M334.379 0H342L333.426 8H325.805L334.379 0Z" fill="#EE9C3B" />
</svg>