<svg xmlns="http://www.w3.org/2000/svg" width="24" height="24" viewBox="0 0 24 24" fill="inherit">
  <path d="M21.713 1.96596C20.8825 1.14795 19.7657 0.686217 18.6 0.678955H5.4C2.1 0.678955 1 2.64905 1 5.07896V21.579C1 21.7832 1.05689 21.9835 1.16428 22.1573C1.27168 22.331 1.42535 22.4715 1.60807 22.5628C1.79078 22.6542 1.99533 22.6929 2.19879 22.6745C2.40224 22.6562 2.59657 22.5815 2.76 22.459L4.641 21.051C4.85503 20.8917 5.11937 20.8152 5.38536 20.8354C5.65135 20.8556 5.90109 20.9712 6.0886 21.161L7.9168 23.0002C8.1243 23.2074 8.4056 23.3239 8.6989 23.3239C8.9922 23.3239 9.2735 23.2074 9.481 23.0002L11.329 21.1522C11.5151 20.9656 11.7625 20.8528 12.0254 20.8346C12.2883 20.8164 12.5489 20.894 12.759 21.0532L14.64 22.4612C14.8034 22.5837 14.9978 22.6584 15.2012 22.6767C15.4047 22.6951 15.6092 22.6564 15.7919 22.565C15.9747 22.4737 16.1283 22.3332 16.2357 22.1595C16.3431 21.9857 16.4 21.7854 16.4 21.5812V10.5812H20.1675C20.547 10.61 20.9283 10.5565 21.2852 10.4242C21.6421 10.2919 21.9662 10.084 22.2353 9.8148C22.5043 9.54555 22.7119 9.22131 22.8439 8.8643C22.9759 8.50729 23.0292 8.12596 23 7.74646V5.07896C22.9979 3.91225 22.5354 2.79352 21.713 1.96596ZM11.175 13.604H6.225C6.0062 13.604 5.79635 13.517 5.64164 13.3623C5.48692 13.2076 5.4 12.9978 5.4 12.779C5.4 12.5602 5.48692 12.3503 5.64164 12.1956C5.79635 12.0409 6.0062 11.954 6.225 11.954H11.175C11.3938 11.954 11.6036 12.0409 11.7584 12.1956C11.9131 12.3503 12 12.5602 12 12.779C12 12.9978 11.9131 13.2076 11.7584 13.3623C11.6036 13.517 11.3938 13.604 11.175 13.604ZM12 9.20396H5.4C5.1812 9.20396 4.97135 9.11704 4.81664 8.96232C4.66192 8.8076 4.575 8.59776 4.575 8.37896C4.575 8.16015 4.66192 7.95031 4.81664 7.79559C4.97135 7.64087 5.1812 7.55396 5.4 7.55396H12C12.2188 7.55396 12.4286 7.64087 12.5834 7.79559C12.7381 7.95031 12.825 8.16015 12.825 8.37896C12.825 8.59776 12.7381 8.8076 12.5834 8.96232C12.4286 9.11704 12.2188 9.20396 12 9.20396ZM21.35 7.74646C21.35 8.56486 20.9848 8.92896 20.1675 8.92896H18.05V2.88886C18.052 2.74098 18.1116 2.59972 18.2162 2.49515C18.3208 2.39058 18.462 2.33095 18.6099 2.32896C19.337 2.33245 20.033 2.62372 20.5459 3.13906C21.0588 3.65441 21.3467 4.35189 21.3467 5.07896L21.35 7.74646Z" fill="inherit"/>
</svg>