<svg xmlns="http://www.w3.org/2000/svg" width="16" height="16" viewBox="0 0 16 16" fill="inherit">
  <path d="M13.6 1.33333C13.6 0.596954 13.003 0 12.2667 0H3.73333C2.99695 0 2.4 0.596954 2.4 1.33333H13.6ZM2.4 14.6667C2.4 15.403 2.99695 16 3.73333 16H12.2667C13.003 16 13.6 15.403 13.6 14.6667H2.4ZM15 3.66667C15 3.11438 14.5523 2.66667 14 2.66667H2C1.44772 2.66667 1 3.11438 1 3.66667V12.3333C1 12.8856 1.44772 13.3333 2 13.3333H14C14.5523 13.3333 15 12.8856 15 12.3333V3.66667ZM8 4.5C8.868 4.5 9.575 5.17333 9.575 6C9.575 6.82667 8.868 7.5 8 7.5C7.132 7.5 6.425 6.82667 6.425 6C6.425 5.17333 7.132 4.5 8 4.5ZM11.5 10.3333C11.5 10.8856 11.0523 11.3333 10.5 11.3333H5.5C4.94772 11.3333 4.5 10.8856 4.5 10.3333C4.5 9.22 6.831 8.66667 8 8.66667C9.169 8.66667 11.5 9.22 11.5 10.3333Z" fill="inherit"/>
</svg>