<svg xmlns="http://www.w3.org/2000/svg" width="16" height="16" viewBox="0 0 16 16" fill="inherit">
  <g clip-path="url(#clip0_697_7313)">
    <path d="M16 5.19997C16 7.80796 14.08 9.95995 11.584 10.3359V10.2879C11.3361 7.18396 8.81606 4.66398 5.68806 4.41598H5.66406C6.04006 1.91999 8.19207 0 10.8001 0C13.672 0 16 2.32799 16 5.19997Z" fill="inherit"/>
    <path d="M10.3839 10.384C10.1839 7.84796 8.15196 5.81597 5.61597 5.61598C5.47997 5.60798 5.33597 5.59998 5.19997 5.59998C2.32799 5.59998 0 7.92796 0 10.7999C0 13.6719 2.32799 15.9999 5.19997 15.9999C8.07196 15.9999 10.3999 13.6719 10.3999 10.7999C10.3999 10.664 10.3919 10.52 10.3839 10.384ZM5.90397 11.5039L5.19997 12.7999L4.49598 11.5039L3.19998 10.7999L4.49598 10.096L5.19997 8.79996L5.90397 10.096L7.19996 10.7999L5.90397 11.5039Z" fill="inherit"/>
  </g>
  <defs>
    <clipPath id="clip0_697_7313">
      <rect width="16" height="16" fill="inherit"/>
    </clipPath>
  </defs>
</svg>