<svg xmlns="http://www.w3.org/2000/svg" width="20" height="19" viewBox="0 0 20 19" fill="inherit">
  <path d="M10 7.74841C8.7595 7.74841 7.75 8.75791 7.75 9.99841C7.75 10.9749 8.37925 11.7999 9.25 12.1104V18.2484C9.25 18.6624 9.586 18.9984 10 18.9984C10.414 18.9984 10.75 18.6624 10.75 18.2484V12.1104C11.6207 11.7999 12.25 10.9749 12.25 9.99841C12.25 8.75791 11.2405 7.74841 10 7.74841Z" fill="inherit"/>
  <path d="M10 0C4.48583 0 0 4.40521 0 9.82026C0 12.4472 1.04167 14.9129 2.93417 16.7615C3.26167 17.0807 3.78917 17.0791 4.11333 16.7591C4.43833 16.4383 4.43667 15.9203 4.11083 15.6011C2.53417 14.0618 1.66667 12.0094 1.66667 9.82026C1.66667 5.30785 5.405 1.63671 10 1.63671C14.595 1.63671 18.3333 5.30785 18.3333 9.82026C18.3333 12.0085 17.4658 14.0618 15.89 15.6011C15.5642 15.9203 15.5625 16.4383 15.8875 16.7591C16.0508 16.9195 16.2642 16.9997 16.4783 16.9997C16.6908 16.9997 16.9033 16.9203 17.0667 16.7615C18.9583 14.9129 20 12.448 20 9.82026C20 4.40602 15.5142 0 10 0Z" fill="inherit"/>
  <path d="M10 3.9707C6.69175 3.9707 4 6.66245 4 9.9707C4 11.5757 4.62625 13.0817 5.764 14.2105C6.058 14.5015 6.532 14.5 6.82525 14.2067C7.117 13.9127 7.11475 13.438 6.8215 13.1455C5.96875 12.301 5.5 11.173 5.5 9.9707C5.5 7.48895 7.51825 5.4707 10 5.4707C12.4818 5.4707 14.5 7.48895 14.5 9.9707C14.5 11.173 14.0313 12.3002 13.1793 13.1455C12.8853 13.4372 12.8837 13.912 13.1755 14.2067C13.3225 14.3545 13.5153 14.428 13.708 14.428C13.8985 14.428 14.0898 14.3552 14.2368 14.2105C15.3738 13.0817 16 11.5765 16 9.9707C16 6.66245 13.3083 3.9707 10 3.9707Z" fill="inherit"/>
</svg>