<svg xmlns="http://www.w3.org/2000/svg" width="24" height="24" viewBox="0 0 24 24" fill="inherit">
  <path d="M22.1365 14.3013L20.1543 12.7919C20.1794 12.5591 20.201 12.287 20.201 11.9991C20.201 11.7113 20.1803 11.4392 20.1543 11.2064L22.1383 9.69615C22.5067 9.41265 22.6073 8.90951 22.3728 8.49042L20.3115 5.0175C20.0913 4.62551 19.6088 4.42425 19.1191 4.60013L16.7802 5.51449C16.3318 5.19949 15.8619 4.9335 15.3758 4.72087L15.0199 2.30501C14.9615 1.8465 14.5518 1.5 14.0675 1.5H9.93415C9.44982 1.5 9.04101 1.8465 8.98347 2.298L8.62676 4.72264C8.1559 4.92915 7.69318 5.19165 7.22502 5.51625L4.8798 4.59926C4.44036 4.43389 3.91471 4.61936 3.69636 5.00963L1.63241 8.48689C1.38892 8.88765 1.48954 9.40826 1.86605 9.69878L3.84824 11.2082C3.81678 11.503 3.80153 11.7594 3.80153 12C3.80153 12.2407 3.81682 12.497 3.84824 12.7928L1.86424 14.303C1.49582 14.5874 1.39608 15.0905 1.6306 15.5088L3.6919 18.9816C3.91205 19.3728 4.39007 19.5757 4.88426 19.399L7.22321 18.4847C7.67069 18.7988 8.14062 19.0648 8.62676 19.2783L8.98259 21.6933C9.04096 22.1535 9.44982 22.5 9.93504 22.5H14.0684C14.5527 22.5 14.9624 22.1535 15.0199 21.702L15.3766 19.2783C15.8475 19.0709 16.3093 18.8093 16.7784 18.4838L19.1236 19.4007C19.2368 19.4436 19.3546 19.4655 19.4759 19.4655C19.8245 19.4655 20.1453 19.28 20.307 18.9912L22.3773 15.5C22.6073 15.0905 22.5067 14.5874 22.1365 14.3013ZM12.0008 15.5C10.0186 15.5 8.4066 13.9302 8.4066 12C8.4066 10.0698 10.0186 8.50001 12.0008 8.50001C13.983 8.50001 15.595 10.0698 15.595 12C15.595 13.9302 13.983 15.5 12.0008 15.5Z" fill="inherit"/>
</svg>