<svg xmlns="http://www.w3.org/2000/svg" width="20" height="20" viewBox="0 0 20 20" fill="inherit">
  <g clip-path="url(#clip0_611_4333)">
    <path d="M2.101 16.1242C1.96123 15.9846 1.83107 15.838 1.71057 15.6852L0.171621 17.2242C-0.057207 17.453 -0.057207 17.824 0.171621 18.0528L1.94725 19.8284C2.17607 20.0573 2.54705 20.0573 2.77588 19.8284L4.31428 18.29C3.99654 18.0664 2.41389 16.4218 2.101 16.1242Z" fill="inherit"/>
    <path d="M6.36169 8.31336L8.13689 10.0885L9.08455 9.1411C9.57197 8.65356 9.5774 7.85887 9.08451 7.36582C8.59544 6.87672 7.79849 6.87582 7.3081 7.36629L6.36169 8.31336Z" fill="inherit"/>
    <path d="M12.6342 10.9156C12.1452 10.4265 11.3482 10.4256 10.8578 10.9161L9.9115 11.863L11.6867 13.6382L12.6343 12.6909C13.1217 12.2033 13.1271 11.4087 12.6342 10.9156Z" fill="inherit"/>
    <path d="M5.08904 8.69811C4.86033 8.46944 4.48959 8.46924 4.26076 8.69776L2.93013 10.0292C1.47193 11.4856 1.47376 13.8416 2.93005 15.2961L4.7031 17.0714C6.15638 18.5228 8.51982 18.5213 9.97236 17.0705C9.97236 17.0705 11.3018 15.7402 11.302 15.74C11.5309 15.5115 11.5313 15.14 11.3023 14.911L5.08904 8.69811Z" fill="inherit"/>
    <path d="M19.8284 1.94725L18.0528 0.171621C17.824 -0.057207 17.453 -0.057207 17.2242 0.171621L15.6858 1.71002C15.8386 1.83025 15.9854 1.96006 16.125 2.09955C16.4298 2.42037 18.0574 3.99068 18.2895 4.31482L19.8285 2.77588C20.0572 2.54705 20.0572 2.17607 19.8284 1.94725Z" fill="inherit"/>
    <path d="M17.0699 9.97077C18.5283 8.51417 18.5261 6.15827 17.0699 4.70386L15.2969 2.9287C13.8444 1.47792 11.481 1.47788 10.0277 2.92948C10.0277 2.92948 8.69822 4.25976 8.69802 4.25991C8.46908 4.48851 8.46869 4.85995 8.69767 5.08894L14.9109 11.3019C15.1396 11.5306 15.5103 11.5307 15.7392 11.3023L17.0699 9.97077Z" fill="inherit"/>
  </g>
  <defs>
    <clipPath id="clip0_611_4333">
      <rect width="20" height="20" fill="inherit"/>
    </clipPath>
  </defs>
</svg>