<svg xmlns="http://www.w3.org/2000/svg" width="16" height="16" viewBox="0 0 16 16" fill="inherit">
  <path d="M12.5835 1H6.21647C4.88416 1 3.8 2.08416 3.8 3.41647V3.8H3.41647C2.08416 3.8 1 4.88416 1 6.21647V12.5835C1 13.9158 2.08416 15 3.41647 15H9.78346C11.0074 15 12.011 14.0817 12.1679 12.9H12.5835C13.9158 12.9 15 11.8158 15 10.4835V3.41647C15 2.08416 13.9158 1 12.5835 1ZM13.6 10.4835C13.6 11.044 13.144 11.5 12.5835 11.5H12.2V6.21647C12.2 4.88416 11.1158 3.8 9.78353 3.8H5.2V3.41647C5.2 2.85598 5.65598 2.4 6.21647 2.4H12.5835C13.144 2.4 13.6 2.85598 13.6 3.41647V10.4835Z" fill="inherit"/>
</svg>