<svg width="314" height="212" viewBox="0 0 314 212" fill="none" xmlns="http://www.w3.org/2000/svg">
<path fill-rule="evenodd" clip-rule="evenodd" d="M-46.5891 -14.4416C-99.6603 35.8067 -86.0797 23.1584 -107.912 43.8181C-140.66 74.8076 -154.782 140.825 -107.912 183.429C-57.0247 229.683 9.21182 212.397 39.8089 183.429C70.406 154.461 203.488 28.8879 206.621 25.943C209.754 22.9982 218.398 22.6429 222.871 26.902C227.344 31.1612 227.522 38.9242 224.486 41.8323C222.462 43.771 213.414 52.6161 95.2781 164.572H222.949C275.183 114.557 261.172 127.441 282.981 107.021C315.693 76.3896 332.174 12.6659 282.981 -33.3291C233.788 -79.3242 167.063 -62.9195 135.286 -33.3291C103.509 -3.73878 -28.1665 120.112 -30.8275 122.688C-33.4885 125.264 -42.6229 125.348 -46.871 121.508C-51.1191 117.668 -50.9 110.135 -47.6266 107.021C-45.4444 104.944 -36.7099 96.5247 80.6414 -14.4416H-46.5891Z" fill="#17181C"/>
</svg>
