<svg xmlns="http://www.w3.org/2000/svg" width="24" height="22" viewBox="0 0 24 22" fill="inherit">
  <path d="M1.62708 17.54V21.4304C1.62708 21.667 1.81937 21.8643 2.06098 21.8643H5.06873C5.30541 21.8643 5.50264 21.672 5.50264 21.4304V14.5865L3.31832 16.7708C2.85483 17.2294 2.26314 17.4956 1.62708 17.54Z" fill="inherit"/>
  <path d="M7.00171 14.5372V21.4303C7.00171 21.667 7.19401 21.8643 7.43561 21.8643H10.4434C10.68 21.8643 10.8773 21.672 10.8773 21.4303V17.3723C10.1919 17.3576 9.5509 17.0864 9.06769 16.6032L7.00171 14.5372Z" fill="inherit"/>
  <path d="M12.3761 16.9434V21.4304C12.3761 21.6671 12.5684 21.8643 12.81 21.8643H15.8178C16.0544 21.8643 16.2517 21.672 16.2517 21.4304V13.1517L12.8051 16.5983C12.6719 16.7314 12.529 16.8448 12.3761 16.9434Z" fill="inherit"/>
  <path d="M21.3353 8.06311L17.7506 11.6478V21.4304C17.7506 21.667 17.9429 21.8643 18.1845 21.8643H21.1923C21.4289 21.8643 21.6262 21.672 21.6262 21.4304V8.3343C21.5276 8.25048 21.4536 8.17652 21.3994 8.12721L21.3353 8.06311Z" fill="inherit"/>
  <path d="M23.7958 0.431757C23.6528 0.278904 23.4358 0.200012 23.1597 0.200012C23.135 0.200012 23.1055 0.200012 23.0808 0.200012C21.6805 0.264112 20.2851 0.333142 18.8847 0.397242C18.6974 0.407103 18.441 0.416965 18.2388 0.619125C18.1747 0.683225 18.1254 0.757186 18.086 0.84594C17.8789 1.29464 18.1698 1.58555 18.3078 1.72361L18.6579 2.07863C18.8995 2.32516 19.1461 2.5717 19.3926 2.81331L10.9315 11.2794L7.12986 7.47779C6.90304 7.25097 6.59733 7.12278 6.27191 7.12278C5.94648 7.12278 5.6457 7.25097 5.41889 7.47779L0.355014 12.5367C-0.118338 13.0101 -0.118338 13.7743 0.355014 14.2477L0.581828 14.4745C0.808642 14.7013 1.11435 14.8295 1.43978 14.8295C1.76521 14.8295 2.06598 14.7013 2.2928 14.4745L6.27191 10.4954L10.0735 14.297C10.3003 14.5238 10.606 14.652 10.9315 14.652C11.2569 14.652 11.5577 14.5238 11.7894 14.297L21.3353 4.75109L22.4152 5.82599C22.5434 5.95419 22.7209 6.1317 22.9921 6.1317C23.1055 6.1317 23.2189 6.10211 23.3372 6.03801C23.4161 5.99364 23.4851 5.94433 23.5443 5.88516C23.7563 5.67314 23.7958 5.40195 23.8056 5.18992C23.8451 4.28267 23.8895 3.37541 23.9338 2.46322L23.9979 1.09741C24.0127 0.811424 23.9486 0.589541 23.7958 0.431757Z" fill="inherit"/>
</svg>