<svg xmlns="http://www.w3.org/2000/svg" width="20" height="19" viewBox="0 0 20 19" fill="inherit">
  <path d="M1.35596 14.45V17.6919C1.35596 17.8892 1.51621 18.0535 1.71754 18.0535H4.22401C4.42124 18.0535 4.58559 17.8933 4.58559 17.6919V11.9887L2.76533 13.809C2.37909 14.1911 1.88601 14.413 1.35596 14.45Z" fill="inherit"/>
  <path d="M5.83472 11.9476V17.6919C5.83472 17.8892 5.99497 18.0535 6.1963 18.0535H8.70277C8.9 18.0535 9.06435 17.8933 9.06435 17.6919V14.3103C8.49321 14.298 7.95904 14.072 7.55637 13.6693L5.83472 11.9476Z" fill="inherit"/>
  <path d="M10.3135 13.9528V17.692C10.3135 17.8892 10.4737 18.0535 10.6751 18.0535H13.1815C13.3788 18.0535 13.5431 17.8933 13.5431 17.692V10.793L10.671 13.6652C10.56 13.7761 10.4409 13.8706 10.3135 13.9528Z" fill="inherit"/>
  <path d="M17.7793 6.55255L14.7921 9.53976V17.6919C14.7921 17.8892 14.9524 18.0535 15.1537 18.0535H17.6602C17.8574 18.0535 18.0218 17.8933 18.0218 17.6919V6.77854C17.9396 6.70869 17.8779 6.64706 17.8327 6.60597L17.7793 6.55255Z" fill="inherit"/>
  <path d="M19.8298 0.193121C19.7106 0.0657431 19.5299 0 19.2998 0C19.2792 0 19.2546 0 19.234 0C18.0671 0.0534164 16.9042 0.110942 15.7373 0.164358C15.5811 0.172576 15.3675 0.180794 15.199 0.349261C15.1456 0.402677 15.1045 0.464312 15.0716 0.538273C14.8991 0.912187 15.1415 1.15462 15.2565 1.26967L15.5483 1.56551C15.7496 1.77096 15.9551 1.97641 16.1605 2.17774L9.10955 9.23282L5.94155 6.06481C5.75253 5.8758 5.49778 5.76897 5.22659 5.76897C4.9554 5.76897 4.70475 5.8758 4.51574 6.06481L0.295845 10.2806C-0.0986149 10.6751 -0.0986149 11.3119 0.295845 11.7064L0.484856 11.8954C0.673868 12.0844 0.928623 12.1913 1.19981 12.1913C1.47101 12.1913 1.72165 12.0844 1.91066 11.8954L5.22659 8.57949L8.39459 11.7475C8.5836 11.9365 8.83836 12.0433 9.10955 12.0433C9.38074 12.0433 9.63139 11.9365 9.82451 11.7475L17.7794 3.79256L18.6793 4.68831C18.7861 4.79515 18.9341 4.94307 19.16 4.94307C19.2546 4.94307 19.3491 4.91842 19.4477 4.865C19.5134 4.82802 19.5709 4.78693 19.6202 4.73762C19.7969 4.56094 19.8298 4.33495 19.838 4.15826C19.8709 3.40221 19.9079 2.64617 19.9449 1.88601L19.9983 0.747829C20.0106 0.50951 19.9572 0.324607 19.8298 0.193121Z" fill="inherit"/>
</svg>