<svg xmlns="http://www.w3.org/2000/svg" width="18" height="18" viewBox="0 0 18 18" fill="inherit">
  <g clip-path="url(#clip0_5089_15605)">
    <path d="M9 3.17285C5.78689 3.17285 3.17285 5.78689 3.17285 9C3.17285 12.2131 5.78689 14.8271 9 14.8271C12.2131 14.8271 14.8271 12.2131 14.8271 9C14.8271 5.78689 12.2131 3.17285 9 3.17285ZM11.6292 9L9 11.6292L6.37077 9L9 6.37077L11.6292 9Z" fill="inherit"/>
    <path d="M15.364 2.63602C13.6641 0.936176 11.404 0 9 0C6.59602 0 4.33593 0.936176 2.63602 2.63602C0.936176 4.33593 0 6.59602 0 9C0 11.404 0.936176 13.6641 2.63602 15.364C4.33593 17.0638 6.59602 18 9 18C11.404 18 13.6641 17.0638 15.364 15.364C17.0638 13.6641 18 11.404 18 9C18 6.59602 17.0638 4.33593 15.364 2.63602ZM9 15.8818C5.20534 15.8818 2.11816 12.7947 2.11816 9C2.11816 5.20534 5.20534 2.11816 9 2.11816C12.7947 2.11816 15.8818 5.20534 15.8818 9C15.8818 12.7947 12.7947 15.8818 9 15.8818Z" fill="inherit"/>
  </g>
  <defs>
    <clipPath id="clip0_5089_15605">
      <rect width="18" height="18" fill="white"/>
    </clipPath>
  </defs>
</svg>