<svg xmlns="http://www.w3.org/2000/svg" width="18" height="18" viewBox="0 0 18 18" fill="inherit">
  <g clip-path="url(#clip0_5089_15571)">
    <path d="M9.52734 8.84741V12.8649L13.0066 10.8562V6.83868L9.52734 8.84741Z" fill="inherit"/>
    <path d="M5.52075 5.92532L8.99999 7.93408L12.4792 5.92532L8.99999 3.91656L5.52075 5.92532Z" fill="inherit"/>
    <path d="M8.47265 8.84741L4.99341 6.83868V10.8562L8.47265 12.8649V8.84741Z" fill="inherit"/>
    <path d="M15.8809 3.02182C15.5017 3.02182 15.1544 3.15988 14.8857 3.38801L9.01755 0L3.12821 3.40021C2.85772 3.16484 2.50482 3.02182 2.11895 3.02182C1.26985 3.02182 0.579102 3.71257 0.579102 4.56166C0.579102 5.23832 1.01803 5.81404 1.62598 6.02009V12.8025L7.45566 16.1683C7.43745 16.2628 7.42757 16.3603 7.42757 16.4601C7.42757 17.3092 8.11832 17.9999 8.96742 17.9999C9.81648 17.9999 10.5072 17.3092 10.5072 16.4601C10.5072 16.3787 10.5008 16.2988 10.4885 16.2207L16.4091 12.8025V6.00817C16.9988 5.79217 17.4208 5.22527 17.4208 4.56166C17.4208 3.71261 16.73 3.02182 15.8809 3.02182ZM15.3528 12.1927L9.97517 15.2974C9.70485 15.0628 9.35255 14.9203 8.96738 14.9203C8.60134 14.9203 8.26489 15.0489 8.00034 15.2631L2.68232 12.1927V5.99428C3.25344 5.76889 3.65875 5.21191 3.65875 4.56166C3.65875 4.48091 3.65243 4.40163 3.6404 4.32422L9.01755 1.21971L14.3627 4.30576C14.3487 4.38905 14.3411 4.47444 14.3411 4.56166C14.3411 5.22527 14.7631 5.79217 15.3528 6.00817V12.1927Z" fill="inherit"/>
  </g>
  <defs>
    <clipPath id="clip0_5089_15571">
      <rect width="18" height="18" fill="white"/>
    </clipPath>
  </defs>
</svg>