<svg xmlns="http://www.w3.org/2000/svg" width="14" height="14" viewBox="0 0 14 14" fill="inherit">
  <path d="M11.8516 2.41185C10.9593 1.98981 10.0025 1.67886 9.00198 1.50075C8.98377 1.49731 8.96556 1.50591 8.95618 1.52307C8.8331 1.7487 8.69679 2.04303 8.60134 2.27438C7.52528 2.10831 6.45471 2.10831 5.40072 2.27438C5.30523 2.0379 5.16398 1.7487 5.04035 1.52307C5.03098 1.50647 5.01276 1.49787 4.99455 1.50075C3.99465 1.67827 3.03778 1.98922 2.14489 2.41185C2.13716 2.41529 2.13054 2.42101 2.12614 2.42845C0.311166 5.22358 -0.186054 7.95001 0.0578527 10.6426C0.0589465 10.6558 0.0661379 10.6684 0.0760637 10.6764C1.27353 11.5829 2.43351 12.1332 3.57191 12.498C3.59012 12.5037 3.60943 12.4969 3.62102 12.4814C3.8903 12.1023 4.13035 11.7026 4.33617 11.2823C4.34831 11.2576 4.33672 11.2284 4.31189 11.2187C3.93113 11.0698 3.56858 10.8883 3.21981 10.6821C3.19222 10.6655 3.19 10.6249 3.2154 10.6054C3.28879 10.5487 3.36221 10.4897 3.43229 10.4301C3.44498 10.4193 3.46265 10.417 3.47755 10.4238C5.76874 11.5022 8.24923 11.5022 10.5134 10.4238C10.5283 10.4164 10.5459 10.4187 10.5592 10.4296C10.6293 10.4891 10.7027 10.5487 10.7766 10.6054C10.802 10.6248 10.8003 10.6655 10.7728 10.6821C10.424 10.8923 10.0614 11.0698 9.68013 11.2181C9.6553 11.2278 9.64426 11.2576 9.65642 11.2822C9.86667 11.702 10.1067 12.1017 10.371 12.4808C10.3821 12.4968 10.4019 12.5037 10.4201 12.498C11.5641 12.1332 12.724 11.5829 13.9215 10.6764C13.932 10.6683 13.9386 10.6563 13.9397 10.6432C14.2316 7.5302 13.4508 4.82612 11.8698 2.42899C11.866 2.42101 11.8593 2.41529 11.8516 2.41185ZM4.67838 9.00309C3.98858 9.00309 3.42018 8.35029 3.42018 7.54855C3.42018 6.74681 3.97753 6.09401 4.67838 6.09401C5.3847 6.09401 5.94759 6.75256 5.93655 7.54855C5.93655 8.35029 5.37917 9.00309 4.67838 9.00309ZM9.33029 9.00309C8.64052 9.00309 8.07212 8.35029 8.07212 7.54855C8.07212 6.74681 8.62947 6.09401 9.33029 6.09401C10.0366 6.09401 10.5995 6.75256 10.5885 7.54855C10.5885 8.35029 10.0367 9.00309 9.33029 9.00309Z" fill="inherit"/>
</svg>