<svg xmlns="http://www.w3.org/2000/svg" width="14" height="14" viewBox="0 0 14 14" fill="inherit">
  <path d="M12.3846 3.59263L9.2308 0.578082C8.84612 0.219213 8.3077 0.00388555 7.69233 0.00388555H3.15385C2 -0.0678924 1 0.865187 1 1.94181V11.9903C1 13.0669 1.92308 14 3.15385 14H10.8462C12 14 13 13.1387 13 11.9903V4.95636C13 4.45393 12.7692 3.95151 12.3846 3.59263ZM4.69231 5.67413H7C7.30772 5.67413 7.61538 5.88945 7.61538 6.24834C7.61538 6.60716 7.3846 6.82248 7 6.82248H4.69231C4.38462 6.82248 4.07692 6.60716 4.07692 6.24834C4.07692 5.88945 4.38462 5.67413 4.69231 5.67413ZM9.30767 9.69353H4.69231C4.38462 9.69353 4.07692 9.47821 4.07692 9.11932C4.07692 8.76043 4.3077 8.54511 4.69231 8.54511H9.30767C9.6154 8.54511 9.92305 8.76043 9.92305 9.11932C9.92305 9.47821 9.6154 9.69353 9.30767 9.69353Z" fill="inherit"/>
</svg>