<svg xmlns="http://www.w3.org/2000/svg" width="12" height="12" viewBox="0 0 12 12" fill="inherit">
  <path d="M11.1109 5.33351L9.5625 3.78516L6.16992 7.17773C5.58398 7.76367 5.00829 8.13867 4.42383 7.55273C3.83789 6.9668 4.21289 6.39258 4.79883 5.80664L8.19141 2.41406L6.66649 0.888422C6.33396 0.555891 6.61962 0 7.1118 0H11.1108C11.6016 0 12 0.397711 12 0.888422V4.88892C12 5.37963 11.4448 5.66674 11.1109 5.33351ZM1.5 10.5H9V6.08937L10.5 7.58937V10.5C10.5 11.3291 9.8291 12 9 12H1.5C0.670898 12 0 11.3291 0 10.5V3C0 2.17162 0.670898 1.5 1.5 1.5H4.41066L5.91066 3H1.5V10.5Z" fill="inherit"/>
</svg>