<svg xmlns="http://www.w3.org/2000/svg" width="20" height="20" viewBox="0 0 20 20" fill="inherit">
  <g clip-path="url(#clip0_5829_16128)">
    <path d="M18.3556 4.7L18.3723 4.68333L14.2334 0.555573L13.0556 1.73333L15.4 4.07776C14.3556 4.47776 13.6111 5.48333 13.6111 6.66667C13.6111 8.2 14.8556 9.44443 16.3889 9.44443C16.7833 9.44443 17.1611 9.36109 17.5 9.21109V17.2222C17.5 17.8333 17 18.3333 16.3889 18.3333C15.7779 18.3333 15.2779 17.8333 15.2779 17.2222V12.2222C15.2779 10.9945 14.2834 10 13.0556 10H11.9445V2.22224C11.9445 0.994427 10.95 0 9.72228 0H3.05561C1.8278 0 0.833374 0.994427 0.833374 2.22224V20H11.9445V11.6667H13.6111V17.2222C13.6111 18.7556 14.8556 20 16.3889 20C17.9222 20 19.1667 18.7556 19.1667 17.2222V6.66667C19.1667 5.9 18.8556 5.20557 18.3556 4.7ZM9.72228 7.77776H3.05561V2.22224H9.72228V7.77776ZM16.3889 7.77776C15.7779 7.77776 15.2779 7.27776 15.2779 6.66667C15.2779 6.05557 15.7779 5.55557 16.3889 5.55557C17 5.55557 17.5 6.05557 17.5 6.66667C17.5 7.27776 17 7.77776 16.3889 7.77776Z" fill="inherit"/>
  </g>
  <defs>
    <clipPath id="clip0_5829_16128">
      <rect width="20" height="20" fill="white"/>
    </clipPath>
  </defs>
</svg>