<svg xmlns="http://www.w3.org/2000/svg" width="14" height="14" viewBox="0 0 14 14" fill="inherit">
  <path d="M7 0.5C3.1325 0.5 0 3.4843 0 7.16494C0 10.1102 2.0055 12.6079 4.78625 13.4885C5.13625 13.5512 5.26458 13.3449 5.26458 13.168C5.26458 13.0098 5.25875 12.5904 5.25583 12.0348C3.30867 12.4366 2.898 11.1406 2.898 11.1406C2.5795 10.3714 2.11925 10.1656 2.11925 10.1656C1.48517 9.75247 2.16825 9.76095 2.16825 9.76095C2.87117 9.8073 3.24042 10.4477 3.24042 10.4477C3.86458 11.4668 4.879 11.1723 5.27917 11.0021C5.34217 10.5709 5.52242 10.2775 5.7225 10.1108C4.16792 9.94408 2.534 9.37095 2.534 6.81734C2.534 6.08992 2.80525 5.49532 3.25442 5.02902C3.17567 4.86059 2.93942 4.1829 3.31567 3.265C3.31567 3.265 3.90192 3.0864 5.24067 3.94834C5.80067 3.80026 6.39567 3.72678 6.99067 3.72339C7.58567 3.72678 8.18067 3.80026 8.74067 3.94834C10.0707 3.0864 10.6569 3.265 10.6569 3.265C11.0332 4.1829 10.7969 4.86059 10.7269 5.02902C11.1732 5.49532 11.4444 6.08992 11.4444 6.81734C11.4444 9.37774 9.80817 9.94125 8.25067 10.1052C8.49567 10.3052 8.72317 10.7139 8.72317 11.3384C8.72317 12.2303 8.71442 12.947 8.71442 13.1635C8.71442 13.3382 8.83692 13.5467 9.19567 13.48C11.9962 12.6051 14 10.1057 14 7.16494C14 3.4843 10.8657 0.5 7 0.5Z" fill="inherit"/>
</svg>