<svg xmlns="http://www.w3.org/2000/svg" width="16" height="16" viewBox="0 0 16 16" fill="inherit">
  <path d="M0.727273 11H15.2727V12.5H0.727273V11ZM1.56364 7.9625L2.18182 6.8525L2.8 7.9625L3.74545 7.4L3.12727 6.29H4.36364V5.165H3.12727L3.74545 4.0625L2.8 3.5L2.18182 4.6025L1.56364 3.5L0.618182 4.0625L1.23636 5.165H0V6.29H1.23636L0.618182 7.4L1.56364 7.9625ZM6.43636 7.4L7.38182 7.9625L8 6.8525L8.61818 7.9625L9.56364 7.4L8.94545 6.29H10.1818V5.165H8.94545L9.56364 4.0625L8.61818 3.5L8 4.6025L7.38182 3.5L6.43636 4.0625L7.05455 5.165H5.81818V6.29H7.05455L6.43636 7.4ZM16 5.165H14.7636L15.3818 4.0625L14.4364 3.5L13.8182 4.6025L13.2 3.5L12.2545 4.0625L12.8727 5.165H11.6364V6.29H12.8727L12.2545 7.4L13.2 7.9625L13.8182 6.8525L14.4364 7.9625L15.3818 7.4L14.7636 6.29H16V5.165Z" fill="inherit"/>
</svg>