<svg xmlns="http://www.w3.org/2000/svg" width="16" height="16" viewBox="0 0 16 16" fill="inherit">
  <g clip-path="url(#clip0_3423_13468)">
    <path d="M8 16C9.58225 16 11.129 15.5308 12.4446 14.6518C13.7602 13.7727 14.7855 12.5233 15.391 11.0615C15.9965 9.59966 16.155 7.99113 15.8463 6.43928C15.5376 4.88743 14.7757 3.46197 13.6569 2.34315C12.538 1.22433 11.1126 0.462402 9.56072 0.15372C8.00887 -0.154961 6.40034 0.00346481 4.93853 0.608966C3.47672 1.21447 2.2273 2.23985 1.34824 3.55544C0.469193 4.87103 8.37707e-07 6.41775 6.99382e-07 8C5.13894e-07 10.1217 0.842855 12.1566 2.34315 13.6569C3.84344 15.1571 5.87827 16 8 16ZM9.22666 11.8967C9.22666 12.222 9.09743 12.534 8.86738 12.7641C8.63734 12.9941 8.32533 13.1233 8 13.1233C7.67467 13.1233 7.36266 12.9941 7.13261 12.7641C6.90257 12.534 6.77333 12.222 6.77333 11.8967L6.77333 7.87333C6.77333 7.548 6.90257 7.23599 7.13261 7.00595C7.36266 6.7759 7.67467 6.64667 8 6.64667C8.32533 6.64667 8.63734 6.7759 8.86738 7.00595C9.09743 7.23599 9.22667 7.548 9.22667 7.87333L9.22666 11.8967ZM8 2.87667C8.24341 2.87667 8.48135 2.94889 8.6837 3.08419C8.88604 3.2195 9.04369 3.41179 9.13669 3.63674C9.22968 3.86169 9.25385 4.10917 9.20612 4.34786C9.15838 4.58654 9.04091 4.8057 8.86855 4.97759C8.6962 5.14947 8.47673 5.26636 8.23791 5.31344C7.99909 5.36052 7.75168 5.33569 7.52698 5.24208C7.30229 5.14847 7.11042 4.9903 6.97567 4.78759C6.84092 4.58488 6.76934 4.34675 6.77 4.10333C6.77 3.94197 6.80184 3.78218 6.86369 3.63314C6.92555 3.48409 7.0162 3.34872 7.13046 3.23477C7.24472 3.12082 7.38034 3.03053 7.52955 2.96908C7.67876 2.90763 7.83863 2.87623 8 2.87667Z" fill="inherit"/>
  </g>
  <defs>
    <clipPath id="clip0_3423_13468">
      <rect width="16" height="16" fill="white"/>
    </clipPath>
  </defs>
</svg>