<svg xmlns="http://www.w3.org/2000/svg" width="16" height="16" viewBox="0 0 16 16" fill="inherit">
  <path d="M8.63386 14.5177C9.96091 13.1905 10.4447 11.237 9.89045 9.4431L10.4858 8.84746C10.5207 8.81146 10.5387 8.7623 10.5354 8.71227L10.4003 7.24502C10.3961 7.19486 10.4142 7.14533 10.4498 7.10983C10.4853 7.0742 10.5347 7.05607 10.5849 7.06029L11.9269 7.18444C11.977 7.18816 12.0262 7.16991 12.0616 7.13441C12.0971 7.0989 12.1153 7.04974 12.1116 6.99959L11.9876 5.65648C11.9834 5.60632 12.0015 5.55679 12.0371 5.52116C12.0727 5.48553 12.122 5.46753 12.1723 5.47175L13.5143 5.59589C13.5643 5.59962 13.6136 5.58137 13.6491 5.54586C13.6844 5.51036 13.7028 5.46108 13.6989 5.41105L13.5777 4.06247C13.5734 4.01294 13.5912 3.96415 13.6264 3.92902C13.6613 3.89401 13.7101 3.87613 13.7596 3.88036L15.2339 4.01282C15.2832 4.01704 15.3319 3.99879 15.3662 3.96316L15.9228 3.38949C15.9723 3.33735 16 3.26833 16 3.19645L15.9945 0.559887C15.9965 0.412032 15.9388 0.269516 15.8346 0.164739C15.7304 0.0599613 15.5884 0.00148972 15.4405 0.00273114L12.7372 0C12.6616 0.0142765 12.5929 0.0531334 12.5416 0.110364L6.55324 6.10327C4.18532 5.36983 1.63517 6.46204 0.530543 8.68272C-0.574213 10.9034 0.0920393 13.5981 2.10419 15.0469C4.11622 16.4958 6.88097 16.2717 8.63386 14.5177ZM3.67592 10.415C4.06158 10.029 4.6415 9.91358 5.14537 10.1225C5.64925 10.3313 5.97785 10.8234 5.97785 11.3693C5.97785 11.9151 5.64925 12.4073 5.14537 12.6161C4.6415 12.825 4.06158 12.7095 3.67592 12.3236C3.14959 11.7965 3.14959 10.9421 3.67592 10.415Z" fill="inherit"/>
</svg>