<svg xmlns="http://www.w3.org/2000/svg" width="16" height="16" viewBox="0 0 16 16" fill="inherit">
  <path d="M13.3334 3.99999H11.3334C11.1491 3.99999 11 4.14124 11 4.32562V6.32693C11 6.5113 11.1491 6.66049 11.3334 6.66049H11.6667V6.90577C11.6667 7.13868 11.5427 7.3579 11.3428 7.47777L8.66672 8.48418V3.32496H9.66672C9.78781 3.32496 9.89947 3.25915 9.95837 3.15296C10.017 3.04709 10.0137 2.91746 9.94925 2.81452L8.28259 0.146086C8.16084 -0.0486953 7.83922 -0.0486953 7.7175 0.146086L6.05084 2.81452C5.98637 2.91746 5.98312 3.04709 6.04172 3.15296C6.10062 3.25915 6.21228 3.32496 6.33337 3.32496H7.33337V10.5299L5.00947 9.79374C4.79787 9.67649 4.66669 9.45302 4.66669 9.21099V8.52043C5.25425 8.26234 5.66669 7.67615 5.66669 6.99402C5.66669 6.07446 4.91897 5.3333 4.00003 5.3333C3.08109 5.3333 2.33337 6.07446 2.33337 6.99402C2.33337 7.67615 2.74581 8.2623 3.33337 8.52043V9.21099C3.33337 9.93771 3.72759 10.6081 4.36203 10.9602L7.33337 12.0562V12.8058C6.74581 13.0639 6.33337 13.6501 6.33337 14.3322C6.33337 15.2518 7.08109 16 8.00003 16C8.91897 16 9.66669 15.2518 9.66669 14.3322C9.66669 13.6501 9.25425 13.0639 8.66669 12.8058V10.0401L12.0287 8.62174C12.628 8.26246 13 7.6048 13 6.90577V6.66049H13.3334C13.5176 6.66049 13.6667 6.5113 13.6667 6.32693V4.32562C13.6667 4.14124 13.5176 3.99999 13.3334 3.99999Z" fill="inherit"/>
</svg>