<svg xmlns="http://www.w3.org/2000/svg" width="16" height="16" viewBox="0 0 16 16" fill="inherit">
  <g clip-path="url(#clip0_3423_13439)">
    <path d="M8 2.30467C8.276 2.30467 8.5 2.08067 8.5 1.80467V0.5C8.5 0.224 8.276 0 8 0C7.724 0 7.5 0.224 7.5 0.5V1.80467C7.5 2.08067 7.724 2.30467 8 2.30467Z" fill="inherit"/>
    <path d="M3.61931 4.11933C3.74731 4.11933 3.87531 4.07067 3.97264 3.97267C4.16797 3.77733 4.16797 3.46067 3.97264 3.26533L3.04997 2.34267C2.85464 2.14733 2.53797 2.14733 2.34264 2.34267C2.14731 2.538 2.14731 2.85467 2.34264 3.05L3.26531 3.97267C3.36331 4.07 3.49131 4.11933 3.61931 4.11933Z" fill="inherit"/>
    <path d="M0.50002 8.5H1.80469C2.08069 8.5 2.30469 8.276 2.30469 8C2.30469 7.724 2.08069 7.5 1.80469 7.5H0.50002C0.22402 7.5 2.02656e-05 7.724 2.02656e-05 8C2.02656e-05 8.276 0.22402 8.5 0.50002 8.5Z" fill="inherit"/>
    <path d="M2.69664 13.8034C2.82464 13.8034 2.95264 13.7547 3.04997 13.6567L3.97264 12.734C4.16797 12.5387 4.16797 12.222 3.97264 12.0267C3.77731 11.8314 3.46064 11.8314 3.26531 12.0267L2.34264 12.9494C2.14731 13.1447 2.14731 13.4614 2.34264 13.6567C2.44064 13.7547 2.56864 13.8034 2.69664 13.8034Z" fill="inherit"/>
    <path d="M13.3034 13.8034C13.4314 13.8034 13.5594 13.7547 13.6567 13.6567C13.8521 13.4614 13.8521 13.1447 13.6567 12.9494L12.7341 12.0267C12.5387 11.8314 12.2221 11.8314 12.0267 12.0267C11.8314 12.222 11.8314 12.5387 12.0267 12.734L12.9494 13.6567C13.0474 13.7547 13.1754 13.8034 13.3034 13.8034Z" fill="inherit"/>
    <path d="M14.1953 8.5H15.5C15.776 8.5 16 8.276 16 8C16 7.724 15.776 7.5 15.5 7.5H14.1953C13.9193 7.5 13.6953 7.724 13.6953 8C13.6953 8.276 13.9193 8.5 14.1953 8.5Z" fill="inherit"/>
    <path d="M12.3807 4.11933C12.5087 4.11933 12.6367 4.07067 12.7341 3.97267L13.6567 3.05C13.8521 2.85467 13.8521 2.538 13.6567 2.34267C13.4614 2.14733 13.1447 2.14733 12.9494 2.34267L12.0267 3.26533C11.8314 3.46067 11.8314 3.77733 12.0267 3.97267C12.1254 4.07 12.2527 4.11933 12.3807 4.11933Z" fill="inherit"/>
    <path d="M6 14V14.8333C6 15.4733 6.52667 16 7.16667 16H8.83333C9.39333 16 10 15.5733 10 14.64V14H6Z" fill="inherit"/>
    <path d="M5.05996 4.37331C6.15329 3.48665 7.59329 3.13998 8.99996 3.43998C10.7666 3.80665 12.2 5.24665 12.5666 7.01331C12.94 8.82665 12.26 10.6266 10.8066 11.7266C10.4133 12.02 10.14 12.4733 10.0466 13V13.0066C10.0333 13 10.0133 13 9.99996 13H5.99996C5.98662 13 5.97996 13 5.96662 13.0066V13C5.87329 12.4933 5.57329 12.0266 5.11329 11.6666C3.98662 10.7733 3.33329 9.43998 3.33329 7.99998C3.33329 6.58665 3.95996 5.26665 5.05996 4.37331ZM5.49996 8.33331C5.77329 8.33331 5.99996 8.10665 5.99996 7.83331C5.99996 6.81998 6.81996 5.99998 7.83329 5.99998C8.10662 5.99998 8.33329 5.77331 8.33329 5.49998C8.33329 5.22665 8.10662 4.99998 7.83329 4.99998C6.27329 4.99998 4.99996 6.27331 4.99996 7.83331C4.99996 8.10665 5.22662 8.33331 5.49996 8.33331Z" fill="inherit"/>
    <path d="M10.0466 13H9.99996C10.0133 13 10.0333 13 10.0466 13.0067V13Z" fill="inherit"/>
    <path d="M5.96667 13V13.0067C5.98 13 5.98667 13 6 13H5.96667Z" fill="inherit"/>
  </g>
  <defs>
    <clipPath id="clip0_3423_13439">
      <rect width="16" height="16" fill="white"/>
    </clipPath>
  </defs>
</svg>