<svg xmlns="http://www.w3.org/2000/svg" width="16" height="16" viewBox="0 0 16 16" fill="inherit">
  <path d="M13.25 4.70588H12.375V4.03361C12.375 1.80706 10.415 0 8 0C5.585 0 3.625 1.80706 3.625 4.03361V4.70588H2.75C1.7875 4.70588 1 5.43193 1 6.31933V14.3866C1 15.274 1.7875 16 2.75 16H13.25C14.2125 16 15 15.274 15 14.3866V6.31933C15 5.43193 14.2125 4.70588 13.25 4.70588ZM5.375 4.03361C5.375 2.69445 6.5475 1.61345 8 1.61345C9.4525 1.61345 10.625 2.69445 10.625 4.03361V4.70588H5.375V4.03361ZM13.25 14.3866H2.75V6.31933H13.25V14.3866ZM8 11.9664C8.9625 11.9664 9.75 11.2403 9.75 10.3529C9.75 9.46555 8.9625 8.7395 8 8.7395C7.0375 8.7395 6.25 9.46555 6.25 10.3529C6.25 11.2403 7.0375 11.9664 8 11.9664Z" fill="inherit"/>
</svg>