<svg xmlns="http://www.w3.org/2000/svg" width="16" height="16" viewBox="0 0 16 16" fill="inherit">
  <path d="M14.5 3.5H1.5C1.22386 3.5 1 3.71979 1 3.99091C1 4.26203 1.22386 4.48182 1.5 4.48182H14.5C14.7761 4.48182 15 4.26203 15 3.99091C15 3.71979 14.7761 3.5 14.5 3.5Z" fill="inherit"/>
  <path d="M7.5 7.4274H1.5C1.22386 7.4274 1 7.64719 1 7.91831C1 8.18943 1.22386 8.40922 1.5 8.40922H7.5C7.77614 8.40922 8 8.18943 8 7.91831C8 7.64719 7.77614 7.4274 7.5 7.4274Z" fill="inherit"/>
  <path d="M7.38235 11.3547H1.5C1.22386 11.3547 1 11.5745 1 11.8456C1 12.1167 1.22386 12.3365 1.5 12.3365H7.38235C7.65849 12.3365 7.88235 12.1167 7.88235 11.8456C7.88235 11.5745 7.65849 11.3547 7.38235 11.3547Z" fill="inherit"/>
  <path d="M14.5 9.5547H10.5C10.2239 9.5547 10 9.77449 10 10.0456C10 10.3167 10.2239 10.5365 10.5 10.5365H14.5C14.7761 10.5365 15 10.3167 15 10.0456C15 9.77449 14.7761 9.5547 14.5 9.5547Z" fill="inherit"/>
  <path d="M13 12.0091V8.0818C13 7.81068 12.7761 7.59089 12.5 7.59089C12.2239 7.59089 12 7.81068 12 8.0818V12.0091C12 12.2802 12.2239 12.5 12.5 12.5C12.7761 12.5 13 12.2802 13 12.0091Z" fill="inherit"/>
  <path d="M14.5 3.5H1.5C1.22386 3.5 1 3.71979 1 3.99091C1 4.26203 1.22386 4.48182 1.5 4.48182H14.5C14.7761 4.48182 15 4.26203 15 3.99091C15 3.71979 14.7761 3.5 14.5 3.5Z" stroke="inherit"/>
  <path d="M7.5 7.4274H1.5C1.22386 7.4274 1 7.64719 1 7.91831C1 8.18943 1.22386 8.40922 1.5 8.40922H7.5C7.77614 8.40922 8 8.18943 8 7.91831C8 7.64719 7.77614 7.4274 7.5 7.4274Z" stroke="inherit"/>
  <path d="M7.38235 11.3547H1.5C1.22386 11.3547 1 11.5745 1 11.8456C1 12.1167 1.22386 12.3365 1.5 12.3365H7.38235C7.65849 12.3365 7.88235 12.1167 7.88235 11.8456C7.88235 11.5745 7.65849 11.3547 7.38235 11.3547Z" stroke="inherit"/>
  <path d="M14.5 9.5547H10.5C10.2239 9.5547 10 9.77449 10 10.0456C10 10.3167 10.2239 10.5365 10.5 10.5365H14.5C14.7761 10.5365 15 10.3167 15 10.0456C15 9.77449 14.7761 9.5547 14.5 9.5547Z" stroke="inherit"/>
  <path d="M13 12.0091V8.0818C13 7.81068 12.7761 7.59089 12.5 7.59089C12.2239 7.59089 12 7.81068 12 8.0818V12.0091C12 12.2802 12.2239 12.5 12.5 12.5C12.7761 12.5 13 12.2802 13 12.0091Z" stroke="inherit"/>
</svg>