<svg xmlns="http://www.w3.org/2000/svg" width="20" height="20" viewBox="0 0 20 20" fill="inherit">
  <path d="M10 8.07153C11.8769 8.07153 13.3984 6.55 13.3984 4.6731C13.3984 2.79619 11.8769 1.27466 10 1.27466C8.12309 1.27466 6.60156 2.79619 6.60156 4.6731C6.60156 6.55 8.12309 8.07153 10 8.07153Z" fill="inherit"/>
  <path d="M17 7.77463C18.1046 7.77463 19 6.8792 19 5.77463C19 4.67006 18.1046 3.77463 17 3.77463C15.8954 3.77463 15 4.67006 15 5.77463C15 6.8792 15.8954 7.77463 17 7.77463Z" fill="inherit"/>
  <path d="M2.97656 7.77463C4.08113 7.77463 4.97656 6.8792 4.97656 5.77463C4.97656 4.67006 4.08113 3.77463 2.97656 3.77463C1.87199 3.77463 0.976562 4.67006 0.976562 5.77463C0.976562 6.8792 1.87199 7.77463 2.97656 7.77463Z" fill="inherit"/>
  <path d="M5.2418 10.0008C4.39609 9.30793 3.6302 9.39965 2.65234 9.39965C1.18984 9.39965 0 10.5825 0 12.036V16.302C0 16.9332 0.515234 17.4465 1.14883 17.4465C3.88422 17.4465 3.55469 17.496 3.55469 17.3286C3.55469 14.3057 3.19664 12.0888 5.2418 10.0008Z" fill="inherit"/>
  <path d="M10.9968 9.41523C9.54445 9.27277 8.28208 9.41687 7.19324 10.4738C5.37113 12.1902 5.72179 14.5013 5.72179 17.3285C5.72179 18.0765 6.23929 18.6965 6.885 18.6965C13.8962 18.6965 14.1753 18.9625 14.591 17.8797C14.7274 17.5135 14.69 17.6299 14.69 14.127C14.69 11.3447 12.6415 9.41523 10.9968 9.41523Z" fill="inherit"/>
  <path d="M17.3476 9.39961C16.3644 9.39961 15.6027 9.30883 14.7582 10.0008C16.7881 12.0733 16.4453 14.1389 16.4453 17.3285C16.4453 17.497 16.1717 17.4465 18.8101 17.4465C19.4664 17.4465 20 16.9148 20 16.2613V12.0359C20 10.5824 18.8101 9.39961 17.3476 9.39961Z" fill="inherit"/>
</svg>