<svg xmlns="http://www.w3.org/2000/svg" width="16" height="16" viewBox="0 0 16 16" fill="inherit">
  <path fill-rule="evenodd" clip-rule="evenodd" d="M13.3333 6.99202L12.2822 5.95732L9.93569 8.26718L8.89197 7.23248L7.84825 8.25989L9.93569 10.3293L13.3333 6.99202ZM2.66667 4.5H6.3678V5.95732H2.66667V4.5ZM2.66667 7.41464H6.3678V8.87196H2.66667V7.41464ZM2.66667 10.3293H6.3678V11.7866H2.66667V10.3293Z" fill="inherit"/>
  <path fill-rule="evenodd" clip-rule="evenodd" d="M14.4 1H1.6C0.72 1 0 1.7 0 2.55556V13.4444C0 14.3 0.72 15 1.6 15H14.4C15.28 15 16 14.3 16 13.4444V2.55556C16 1.7 15.28 1 14.4 1ZM14.4 13.4444H1.6V2.55556H14.4V13.4444Z" fill="inherit"/>
</svg>