<svg xmlns="http://www.w3.org/2000/svg" width="20" height="20" viewBox="0 0 20 20" fill="inherit">
  <path d="M18.1818 9.00909L20 7.19091C16.6091 3.8 11.9364 2.50909 7.54545 3.27273L9.89091 5.61818C12.8909 5.6 15.9 6.72727 18.1818 9.00909ZM16.3636 10.8273C15.3818 9.84545 14.2182 9.14545 12.9818 8.70909L15.7273 11.4545L16.3636 10.8273ZM7.27273 14.4636L10 17.1909L12.7273 14.4636C11.2273 12.9545 8.78182 12.9545 7.27273 14.4636ZM2.19091 0.5L0.909091 1.78182L3.68182 4.55455C2.35455 5.21818 1.10909 6.09091 0 7.19091L1.81818 9.00909C2.93636 7.89091 4.22727 7.04545 5.60909 6.48182L7.64545 8.51818C6.17273 8.90909 4.79091 9.68182 3.63636 10.8273L5.45455 12.6455C6.68182 11.4182 8.28182 10.7909 9.9 10.7727L16.3364 17.2091L17.6182 15.9273L2.19091 0.5Z" fill="inherit"/>
</svg>