<svg xmlns="http://www.w3.org/2000/svg" width="16" height="16" viewBox="0 0 16 16" fill="inherit">
  <g clip-path="url(#clip0_4373_18532)">
    <path d="M14.0953 7.61904H12.9524V4.57143C12.9524 3.72954 12.2705 3.04761 11.4286 3.04761H8.38097V1.90475C8.38097 0.853321 7.52761 0 6.47618 0C5.42475 0 4.57143 0.853321 4.57143 1.90475V3.04761H1.52382C0.681929 3.04761 0.00764286 3.7295 0.00764286 4.57143L0.00382143 7.46668H1.14286C2.27811 7.46668 3.2 8.38857 3.2 9.52382C3.2 10.6591 2.27811 11.581 1.14286 11.581H0.00382143L0 14.4762C0 15.3181 0.681893 16 1.52382 16H4.41907V14.8571C4.41907 13.7219 5.34096 12.8 6.47621 12.8C7.61146 12.8 8.53336 13.7219 8.53336 14.8571V16H11.4286C12.2705 16 12.9524 15.3181 12.9524 14.4762V11.4286H14.0953C15.1467 11.4286 16 10.5753 16 9.52382C16 8.47239 15.1467 7.61904 14.0953 7.61904Z" fill="inherit"/>
  </g>
  <defs>
    <clipPath id="clip0_4373_18532">
      <rect width="16" height="16" fill="white"/>
    </clipPath>
  </defs>
</svg>