<svg xmlns="http://www.w3.org/2000/svg" width="16" height="16" viewBox="0 0 16 16" fill="inherit">
  <path d="M1.6 2.4C1.6 1.95818 1.95818 1.6 2.4 1.6H4C4.44182 1.6 4.8 1.24182 4.8 0.8C4.8 0.358176 4.44182 0 4 0H2.4C1.07452 0 0 1.07452 0 2.4V4C0 4.44183 0.358176 4.8 0.8 4.8C1.24182 4.8 1.6 4.44183 1.6 4V2.4Z" fill="inherit"/>
  <path d="M14.4 13.6C14.4 14.0418 14.0418 14.4 13.6 14.4H12C11.5582 14.4 11.2 14.7582 11.2 15.2C11.2 15.6418 11.5582 16 12 16H13.6C14.9255 16 16 14.9255 16 13.6V12C16 11.5582 15.6418 11.2 15.2 11.2C14.7582 11.2 14.4 11.5582 14.4 12V13.6Z" fill="inherit"/>
  <path d="M1.6 13.6C1.6 14.0418 1.95818 14.4 2.4 14.4H4C4.44183 14.4 4.8 14.7582 4.8 15.2C4.8 15.6418 4.44183 16 4 16H2.4C1.07452 16 0 14.9255 0 13.6V12C0 11.5582 0.358176 11.2 0.8 11.2C1.24183 11.2 1.6 11.5582 1.6 12V13.6Z" fill="inherit"/>
  <path d="M13.6 1.6C14.0418 1.6 14.4 1.95818 14.4 2.4V4C14.4 4.44182 14.7582 4.8 15.2 4.8C15.6418 4.8 16 4.44183 16 4V2.4C16 1.07452 14.9255 0 13.6 0H12C11.5582 0 11.2 0.358176 11.2 0.8C11.2 1.24182 11.5582 1.6 12 1.6H13.6Z" fill="inherit"/>
  <path d="M3.2 6.4C3.2 6.84184 3.55818 7.2 4 7.2H6.4C6.84184 7.2 7.2 6.84184 7.2 6.4V4C7.2 3.55818 6.84184 3.2 6.4 3.2H4C3.55818 3.2 3.2 3.55817 3.2 4V6.4Z" fill="inherit"/>
  <path d="M3.2 12C3.2 12.4418 3.55818 12.8 4 12.8H6.4C6.84184 12.8 7.2 12.4418 7.2 12V9.6C7.2 9.15816 6.84184 8.8 6.4 8.8H4C3.55818 8.8 3.2 9.15816 3.2 9.6V12Z" fill="inherit"/>
  <path d="M8.8 6.4C8.8 6.84184 9.15816 7.2 9.6 7.2H12C12.4418 7.2 12.8 6.84184 12.8 6.4V4C12.8 3.55818 12.4418 3.2 12 3.2H9.6C9.15816 3.2 8.8 3.55817 8.8 4V6.4Z" fill="inherit"/>
  <path d="M8.8 12C8.8 12.4418 9.15816 12.8 9.6 12.8H12C12.4418 12.8 12.8 12.4418 12.8 12V9.6C12.8 9.15816 12.4418 8.8 12 8.8H9.6C9.15816 8.8 8.8 9.15816 8.8 9.6V12Z" fill="inherit"/>
</svg>