<svg xmlns="http://www.w3.org/2000/svg" width="9" height="8" viewBox="0 0 9 8" fill="inherit">
<path d="M6.336 3.44094C6.03429 3.44094 5.74286 3.39709 5.46171 3.3094C5.18743 3.21544 4.94743 3.10582 4.74171 2.98054C4.54286 2.84899 4.34743 2.72058 4.15543 2.5953C3.97029 2.47002 3.77486 2.36353 3.56914 2.27584C3.36343 2.18188 3.15771 2.1349 2.952 2.1349C2.58171 2.1349 2.27314 2.24765 2.02629 2.47315C1.78629 2.69239 1.66629 2.97114 1.66629 3.3094H0C0 2.47629 0.226286 1.79978 0.678857 1.27987C1.13829 0.759955 1.79657 0.5 2.65371 0.5C2.95543 0.5 3.24343 0.54698 3.51771 0.64094C3.79886 0.728635 4.04229 0.835123 4.248 0.960403C4.46057 1.08568 4.65943 1.21409 4.84457 1.34564C5.03657 1.47092 5.23543 1.58054 5.44114 1.6745C5.65371 1.76219 5.86286 1.80604 6.06857 1.80604C6.43886 1.80604 6.74057 1.69642 6.97371 1.47718C7.21371 1.25794 7.33371 0.982327 7.33371 0.650336H9C9 1.47718 8.77029 2.15056 8.31086 2.67047C7.85829 3.18412 7.2 3.44094 6.336 3.44094ZM6.336 7.5C6.03429 7.5 5.74286 7.45615 5.46171 7.36846C5.18743 7.2745 4.94743 7.16488 4.74171 7.0396C4.54286 6.90805 4.34743 6.77964 4.15543 6.65436C3.97029 6.52908 3.77486 6.4226 3.56914 6.3349C3.36343 6.24094 3.15771 6.19396 2.952 6.19396C2.58171 6.19396 2.27314 6.30358 2.02629 6.52282C1.78629 6.73579 1.66629 7.01141 1.66629 7.34966H0C0 6.51655 0.226286 5.84318 0.678857 5.32953C1.13829 4.81588 1.79657 4.55906 2.65371 4.55906C2.95543 4.55906 3.24343 4.60604 3.51771 4.7C3.79886 4.7877 4.04229 4.89418 4.248 5.01946C4.46057 5.14474 4.65943 5.27315 4.84457 5.4047C5.03657 5.52998 5.23543 5.6396 5.44114 5.73356C5.65371 5.82125 5.86286 5.8651 6.06857 5.8651C6.43886 5.8651 6.74057 5.75548 6.97371 5.53624C7.21371 5.31074 7.33371 5.02886 7.33371 4.6906H9C9 5.51745 8.77029 6.19396 8.31086 6.72013C7.85829 7.24004 7.2 7.5 6.336 7.5Z" fill="inherit"/>
</svg>