<svg xmlns="http://www.w3.org/2000/svg" width="16" height="16" viewBox="0 0 16 16" fill="inherit">
  <path d="M6.73379 12.4768C7.91427 12.4768 9.00482 12.1167 9.91548 11.5091L13.2096 14.8059C13.4683 15.0647 13.8955 15.0647 14.1652 14.8059L14.8061 14.1646C15.0646 13.9058 15.0646 13.4782 14.8061 13.2082L11.5007 9.92264C12.1077 9.01125 12.4676 7.91983 12.4676 6.7384C12.4676 3.57665 9.89299 1 6.73379 1C3.57458 1 1 3.57665 1 6.7384C1 9.90003 3.56334 12.4768 6.73379 12.4768ZM6.73379 3.25035C8.65629 3.25035 10.219 4.81435 10.219 6.7384C10.219 8.66245 8.65629 10.2264 6.73379 10.2264C4.81128 10.2264 3.24854 8.66245 3.24854 6.7384C3.24854 4.81435 4.81128 3.25035 6.73379 3.25035Z" fill="inherit"/>
</svg>