<svg xmlns="http://www.w3.org/2000/svg" width="16" height="18" viewBox="0 0 16 18" fill="inherit">
  <path d="M6.73379 14.0806C7.91427 14.0806 9.00482 13.7027 9.91548 13.0651L13.2096 16.5247C13.4683 16.7963 13.8955 16.7963 14.1652 16.5247L14.8061 15.8517C15.0646 15.5801 15.0646 15.1314 14.8061 14.848L11.5007 11.4003C12.1077 10.4439 12.4676 9.29857 12.4676 8.05879C12.4676 4.74091 9.89299 2.03702 6.73379 2.03702C3.57458 2.03702 1 4.74091 1 8.05879C1 11.3766 3.56334 14.0806 6.73379 14.0806ZM6.73379 4.3985C8.65629 4.3985 10.219 6.03973 10.219 8.05879C10.219 10.0779 8.65629 11.7191 6.73379 11.7191C4.81128 11.7191 3.24854 10.0779 3.24854 8.05879C3.24854 6.03973 4.81128 4.3985 6.73379 4.3985Z" fill="inherit"/>
</svg>