<svg xmlns="http://www.w3.org/2000/svg" width="14" height="14" viewBox="0 0 14 14" fill="inherit">
  <path fill-rule="evenodd" clip-rule="evenodd" d="M7 14C8.85651 14 10.637 13.2625 11.9497 11.9497C13.2625 10.637 14 8.85651 14 7C14 5.14348 13.2625 3.36301 11.9497 2.05025C10.637 0.737498 8.85651 0 7 0C5.14348 0 3.36301 0.737498 2.05025 2.05025C0.737498 3.36301 0 5.14348 0 7C0 8.85651 0.737498 10.637 2.05025 11.9497C3.36301 13.2625 5.14348 14 7 14ZM10.2438 5.8688C10.4079 5.70468 10.5001 5.48209 10.5001 5.25C10.5001 5.0179 10.4079 4.79532 10.2438 4.6312C10.0797 4.46708 9.85709 4.37488 9.625 4.37488C9.39291 4.37488 9.17032 4.46708 9.0062 4.6312L6.125 7.5131L4.9938 6.3812C4.82968 6.21708 4.60709 6.12488 4.375 6.12488C4.1429 6.12488 3.92032 6.21708 3.7562 6.3812C3.59208 6.54532 3.49988 6.7679 3.49988 7C3.49988 7.23209 3.59208 7.45468 3.7562 7.6188L5.5062 9.3688C5.58745 9.45008 5.68392 9.51455 5.7901 9.55854C5.89627 9.60252 6.01007 9.62516 6.125 9.62516C6.23993 9.62516 6.35373 9.60252 6.4599 9.55854C6.56608 9.51455 6.66255 9.45008 6.7438 9.3688L10.2438 5.8688Z" fill="inherit"/>
</svg>