<svg xmlns="http://www.w3.org/2000/svg" width="26" height="26" viewBox="0 0 26 26" fill="none">
<path fill-rule="evenodd" clip-rule="evenodd" d="M13 26C16.4478 26 19.7544 24.6304 22.1924 22.1924C24.6304 19.7544 26 16.4478 26 13C26 9.55219 24.6304 6.24558 22.1924 3.80761C19.7544 1.36964 16.4478 0 13 0C9.55219 0 6.24558 1.36964 3.80761 3.80761C1.36964 6.24558 0 9.55219 0 13C0 16.4478 1.36964 19.7544 3.80761 22.1924C6.24558 24.6304 9.55219 26 13 26ZM19.0242 10.8992C19.329 10.5944 19.5002 10.181 19.5002 9.75C19.5002 9.31897 19.329 8.90559 19.0242 8.6008C18.7194 8.29601 18.306 8.12479 17.875 8.12479C17.444 8.12479 17.0306 8.29601 16.7258 8.6008L11.375 13.9529L9.2742 11.8508C8.96941 11.546 8.55603 11.3748 8.125 11.3748C7.69397 11.3748 7.28059 11.546 6.9758 11.8508C6.67101 12.1556 6.49979 12.569 6.49979 13C6.49979 13.431 6.67101 13.8444 6.9758 14.1492L10.2258 17.3992C10.3767 17.5501 10.5559 17.6699 10.753 17.7516C10.9502 17.8333 11.1616 17.8753 11.375 17.8753C11.5884 17.8753 11.7998 17.8333 11.997 17.7516C12.1941 17.6699 12.3733 17.5501 12.5242 17.3992L19.0242 10.8992Z" fill="inherit"/>
</svg>