<svg width="18" height="17" viewBox="0 0 18 17" fill="none" xmlns="http://www.w3.org/2000/svg">
<mask id="mask0_2982_13908" style="mask-type:luminance" maskUnits="userSpaceOnUse" x="0" y="0" width="18" height="17">
<path d="M18 0H0V17H18V0Z" fill="white"/>
</mask>
<g mask="url(#mask0_2982_13908)">
<path d="M4.07466 5.38463C3.65195 6.2559 3.70642 7.22272 4.16617 7.79598C4.07015 7.05094 4.19885 6.29317 4.53441 5.62804C4.85575 4.95394 5.3666 4.39837 5.99864 4.03564H5.91802C5.20769 4.04247 4.47122 4.58616 4.07466 5.38463Z" fill="#88B2FB"/>
<path d="M15.4461 9.60666C15.4701 8.54658 15.0343 7.58886 14.215 7.14754L13.6115 6.82451L9.68944 4.74984L8.15113 3.93317C7.6609 3.68664 7.10087 3.63723 6.57796 3.7944L4.33585 2.60693C3.33791 2.08144 2.02622 2.7002 1.40523 3.97184C0.784235 5.24349 1.08928 6.72669 2.07851 7.25218C2.09022 7.25958 2.10264 7.26567 2.11555 7.27038L4.32714 8.45331C4.51535 8.98189 4.88716 9.41716 5.36866 9.67263C5.37775 9.67657 5.38792 9.67657 5.39699 9.67263L11.4282 12.8574C12.254 13.2988 13.252 13.1008 14.0429 12.4434L14.86 12.8756L16.2523 10.0048L15.4352 9.59074L15.4461 9.60666Z" fill="#88B2FB"/>
<path d="M2.49267 12.1887L6.34935 14.3316L3.89589 16.9545C3.88034 16.9745 3.85892 16.9887 3.83493 16.9949C3.81094 17.001 3.78566 16.9988 3.76298 16.9886H3.75209L0.0653596 15.014C0.0358593 14.9971 0.0138623 14.9689 0.00408632 14.9353C-0.00568966 14.9017 -0.00246613 14.8655 0.0130656 14.8343C0.0185887 14.823 0.0251569 14.8124 0.0326759 14.8025L2.49267 12.1887ZM5.61288 8.87191C5.62844 8.85187 5.64983 8.83768 5.67384 8.83151C5.69783 8.82537 5.72311 8.82755 5.74579 8.83779H5.75669L9.44123 10.7987C9.45644 10.8064 9.46999 10.8172 9.48106 10.8306C9.4921 10.8439 9.50045 10.8595 9.50555 10.8763C9.51065 10.8931 9.51241 10.9109 9.51071 10.9284C9.50901 10.946 9.50392 10.963 9.4957 10.9784L9.48045 11.0035V11.0148L6.61954 14.0654L2.75414 11.9157L5.61288 8.87191ZM14.6902 11.0103C15.0759 10.2141 15.7797 9.77958 16.2699 10.0366C16.7602 10.2937 16.8386 11.149 16.453 11.943C16.0673 12.7369 15.3635 13.1737 14.8733 12.9166C14.383 12.6595 14.3024 11.7974 14.6902 11.0035V11.0103ZM5.91793 3.65794C6.14198 3.65435 6.36441 3.69846 6.5716 3.78761C6.39258 3.84141 6.21894 3.91302 6.05302 4.00145L5.99637 4.0333H5.91575C5.20542 4.0333 4.46895 4.58609 4.07239 5.38456C3.64968 6.25583 3.70415 7.22264 4.1639 7.79591C4.19667 8.01341 4.25071 8.22683 4.32514 8.43287C3.41653 7.86188 3.16596 6.45374 3.75862 5.21395C4.22709 4.24941 5.08994 3.65794 5.91793 3.65794ZM11.2584 3.07558L15.1129 5.23214L13.6117 6.82454L9.68962 4.74988L11.2584 3.07558ZM14.0976 0.0431891C14.1119 0.021571 14.1328 0.00558169 14.1569 -0.00224709C14.181 -0.0100758 14.2069 -0.00929676 14.2305 -3.31039e-05L17.9281 1.97682C17.9583 1.99296 17.9815 2.02058 17.9928 2.054C18.0042 2.08742 18.0029 2.12411 17.9891 2.15653C17.9836 2.16779 17.977 2.17846 17.9695 2.18838L15.3831 4.94324L11.5177 2.7935L14.0976 0.0431891Z" fill="white"/>
</g>
</svg>
