<svg xmlns="http://www.w3.org/2000/svg" width="14" height="14" viewBox="0 0 14 14" fill="inherit">
  <path d="M14 2.80223C13.4794 3.02308 12.9246 3.16946 12.3462 3.24054C12.9412 2.897 13.3954 2.35715 13.6089 1.70646C13.0541 2.02631 12.4416 2.25223 11.7889 2.37831C11.2621 1.83592 10.5114 1.5 9.69238 1.5C8.10337 1.5 6.82413 2.74723 6.82413 4.27623C6.82413 4.49623 6.84338 4.70777 6.89062 4.90915C4.5045 4.79662 2.39313 3.69069 0.97475 2.006C0.727125 2.42146 0.581875 2.897 0.581875 3.40892C0.581875 4.37015 1.09375 5.22223 1.85675 5.71554C1.39562 5.70708 0.94325 5.57762 0.56 5.37369C0.56 5.38215 0.56 5.39315 0.56 5.40415C0.56 6.75292 1.55487 7.87323 2.8595 8.13131C2.62587 8.19308 2.37125 8.22269 2.107 8.22269C1.92325 8.22269 1.73775 8.21254 1.56362 8.17531C1.9355 9.27446 2.99075 10.0825 4.2455 10.1088C3.269 10.8475 2.02913 11.2925 0.686875 11.2925C0.4515 11.2925 0.22575 11.2824 0 11.2545C1.27137 12.0473 2.77813 12.5 4.403 12.5C9.6845 12.5 12.572 8.26923 12.572 4.602C12.572 4.47931 12.5676 4.36085 12.5615 4.24323C13.1311 3.85231 13.6098 3.36408 14 2.80223Z" fill="inherit"/>
</svg>