<svg xmlns="http://www.w3.org/2000/svg" width="16" height="16" viewBox="0 0 16 16" fill="inherit">
  <path d="M3.27554 4.95383C5.88479 2.34872 10.1152 2.34872 12.7245 4.95383L13.0385 5.26734C13.169 5.39762 13.169 5.60879 13.0385 5.73906L11.9643 6.81157C11.899 6.8767 11.7933 6.8767 11.728 6.81157L11.2959 6.38013C9.47562 4.56273 6.52437 4.56273 4.70408 6.38013L4.24129 6.84216C4.17608 6.90729 4.07033 6.90729 4.00508 6.84216L2.93087 5.76965C2.80037 5.63938 2.80037 5.42821 2.93087 5.29794L3.27554 4.95383ZM14.9461 7.17192L15.9022 8.12643C16.0326 8.2567 16.0326 8.46787 15.9022 8.59815L11.5912 12.9023C11.4607 13.0326 11.2492 13.0326 11.1187 12.9023L8.05908 9.84754C8.02645 9.81495 7.97358 9.81495 7.94095 9.84754L4.88137 12.9023C4.75091 13.0326 4.53937 13.0326 4.40891 12.9023L0.0978468 8.5981C-0.0326156 8.46783 -0.0326156 8.25666 0.0978468 8.12639L1.05391 7.17183C1.18438 7.0416 1.3959 7.0416 1.52636 7.17183L4.58608 10.2267C4.61866 10.2593 4.67154 10.2593 4.70416 10.2267L7.7637 7.17183C7.89416 7.0416 8.1057 7.0416 8.23616 7.17183L11.2959 10.2267C11.3285 10.2593 11.3814 10.2593 11.414 10.2267L14.4736 7.17192C14.6041 7.04164 14.8156 7.04164 14.9461 7.17192Z" fill="inherit"/>
</svg>