<svg xmlns="http://www.w3.org/2000/svg" width="12" height="12" viewBox="0 0 12 12" fill="inherit">
<path d="M6 0C4.81331 0 3.65328 0.351894 2.66658 1.01118C1.67989 1.67047 0.910851 2.60754 0.456725 3.7039C0.00259972 4.80026 -0.11622 6.00665 0.115291 7.17054C0.346802 8.33443 0.918247 9.40352 1.75736 10.2426C2.59648 11.0818 3.66557 11.6532 4.82946 11.8847C5.99335 12.1162 7.19975 11.9974 8.2961 11.5433C9.39246 11.0891 10.3295 10.3201 10.9888 9.33342C11.6481 8.34673 12 7.18669 12 6C12 4.4087 11.3679 2.88258 10.2426 1.75736C9.11742 0.632141 7.5913 0 6 0ZM5.08 3.0775C5.08 2.8335 5.17693 2.59949 5.34946 2.42696C5.522 2.25443 5.756 2.1575 6 2.1575C6.244 2.1575 6.47801 2.25443 6.65054 2.42696C6.82307 2.59949 6.92 2.8335 6.92 3.0775V6.095C6.92 6.339 6.82307 6.573 6.65054 6.74554C6.47801 6.91807 6.244 7.015 6 7.015C5.756 7.015 5.522 6.91807 5.34946 6.74554C5.17693 6.573 5.08 6.339 5.08 6.095V3.0775ZM6 9.8425C5.81744 9.8425 5.63899 9.78833 5.48723 9.68685C5.33547 9.58538 5.21723 9.44115 5.14749 9.27244C5.07774 9.10373 5.05962 8.91812 5.09541 8.73911C5.13121 8.56009 5.21932 8.39572 5.34858 8.26681C5.47785 8.13789 5.64246 8.05023 5.82157 8.01492C6.00068 7.97961 6.18624 7.99823 6.35476 8.06844C6.52328 8.13864 6.66718 8.25727 6.76825 8.40931C6.86931 8.56134 6.923 8.73994 6.9225 8.9225C6.9225 9.04352 6.89862 9.16336 6.85223 9.27515C6.80584 9.38693 6.73785 9.48846 6.65216 9.57392C6.56646 9.65938 6.46475 9.7271 6.35284 9.77319C6.24093 9.81927 6.12103 9.84283 6 9.8425Z" fill="inherit"/>
</svg>