<svg xmlns="http://www.w3.org/2000/svg" width="20" height="20" viewBox="0 0 20 20" fill="inherit">
<path d="M18.6884 11.9725L16.9894 10.6788C17.0109 10.4792 17.0294 10.246 17.0294 9.99926C17.0294 9.7525 17.0117 9.51927 16.9894 9.31976L18.69 8.02527C19.0057 7.78227 19.092 7.35101 18.891 6.99179L17.1242 4.015C16.9354 3.67901 16.5219 3.5065 16.1021 3.65725L14.0973 4.44099C13.713 4.17099 13.3102 3.943 12.8935 3.76075L12.5885 1.69001C12.5384 1.297 12.1872 1 11.7721 1H8.22927C7.81413 1 7.46372 1.297 7.4144 1.684L7.10865 3.76226C6.70506 3.93927 6.30844 4.16427 5.90716 4.4425L3.89697 3.65651C3.52031 3.51476 3.06975 3.67374 2.88259 4.00825L1.1135 6.98876C0.904788 7.33227 0.991037 7.77851 1.31376 8.02752L3.01278 9.32127C2.98581 9.57401 2.97274 9.79377 2.97274 10C2.97274 10.2063 2.98585 10.426 3.01278 10.6795L1.31221 11.974C0.996416 12.2178 0.910925 12.649 1.11194 13.0075L2.87877 15.9843C3.06748 16.3195 3.4772 16.4935 3.90079 16.342L5.90561 15.5583C6.28916 15.8275 6.69196 16.0555 7.10865 16.2385L7.41365 18.3085C7.46368 18.703 7.81413 19 8.23003 19H11.7729C12.188 19 12.5392 18.703 12.5885 18.316L12.8943 16.2385C13.2979 16.0608 13.6937 15.8365 14.0958 15.5575L16.106 16.3435C16.203 16.3802 16.3039 16.399 16.4079 16.399C16.7067 16.399 16.9817 16.24 17.1203 15.9925L18.8948 13C19.092 12.649 19.0057 12.2178 18.6884 11.9725ZM10.0007 13C8.30166 13 6.91994 11.6545 6.91994 10C6.91994 8.34551 8.30166 7.00001 10.0007 7.00001C11.6997 7.00001 13.0814 8.34551 13.0814 10C13.0814 11.6545 11.6997 13 10.0007 13Z" fill="inherit"/>
</svg>