<svg xmlns="http://www.w3.org/2000/svg" width="16" height="16" viewBox="0 0 16 16" fill="inherit">
  <path fill-rule="evenodd" clip-rule="evenodd" d="M0.399902 4.00005C0.399902 3.33731 0.937161 2.80005 1.5999 2.80005L14.3999 2.80005C15.0626 2.80005 15.5999 3.33731 15.5999 4.00005C15.5999 4.66279 15.0626 5.20005 14.3999 5.20005L1.5999 5.20005C0.937161 5.20005 0.399902 4.66279 0.399902 4.00005Z" fill="inherit"/>
  <path fill-rule="evenodd" clip-rule="evenodd" d="M2.80005 8.00005C2.80005 7.33731 3.33731 6.80005 4.00005 6.80005H12C12.6628 6.80005 13.2 7.33731 13.2 8.00005C13.2 8.66279 12.6628 9.20005 12 9.20005H4.00005C3.33731 9.20005 2.80005 8.66279 2.80005 8.00005Z" fill="inherit"/>
  <path fill-rule="evenodd" clip-rule="evenodd" d="M5.19995 12C5.19995 11.3373 5.73721 10.8 6.39995 10.8H9.59995C10.2627 10.8 10.8 11.3373 10.8 12C10.8 12.6628 10.2627 13.2 9.59995 13.2H6.39995C5.73721 13.2 5.19995 12.6628 5.19995 12Z" fill="inherit"/>
</svg>