<svg xmlns="http://www.w3.org/2000/svg" width="24" height="24" viewBox="0 0 24 24" fill="inherit">
<path fill-rule="evenodd" clip-rule="evenodd" d="M4.51996 7.99304L13.0133 0.349494C13.5333 -0.118479 14.3733 -0.118479 14.88 0.361493L21.48 6.30114C22 6.76911 22 7.52507 21.48 7.99304L13 15.6246C12.48 16.0926 11.64 16.0926 11.12 15.6246L4.51996 9.68494C3.99996 9.21697 3.99996 8.46101 4.51996 7.99304ZM18.6667 7.14141L12.0667 13.0811L7.34668 8.83331L13.9467 2.89366L18.6667 7.14141ZM20 13.2006H19.0933L16.4267 15.6005H18.9733L21.3333 18.0004H2.66667L5.04 15.6005H7.77333L5.10667 13.2006H4L0 16.8004V21.6001C0 22.9201 1.18667 24 2.65333 24H21.3333C22.8 24 24 22.9321 24 21.6001V16.8004L20 13.2006Z" fill="inherit"/>
</svg>