<svg xmlns="http://www.w3.org/2000/svg" width="12" height="12" viewBox="0 0 12 12" fill="inherit">
<path d="M8.1894 3.10349C7.59425 2.6273 6.8717 2.25 6 2.25C3.92894 2.25 2.25 3.92893 2.25 6C2.25 8.07105 3.92894 9.75 6 9.75C7.62745 9.75 9.014 8.7127 9.5323 7.2628C9.62525 7.00275 9.8875 6.8284 10.1576 6.88565L10.6468 6.98935C10.9169 7.0466 11.0918 7.3131 11.009 7.57655C10.3393 9.7056 8.3508 11.25 6 11.25C3.10051 11.25 0.75 8.8995 0.75 6C0.75 3.10051 3.10051 0.75 6 0.75C7.39175 0.75 8.4758 1.38424 9.2556 2.0373L10.1465 1.14645C10.2894 1.00345 10.5045 0.96067 10.6913 1.03806C10.8782 1.11545 11 1.29777 11 1.5V4.25C11 4.52614 10.7761 4.75 10.5 4.75H7.75C7.5478 4.75 7.36545 4.62818 7.28805 4.44134C7.2107 4.2545 7.25345 4.03944 7.39645 3.89645L8.1894 3.10349Z" fill="inherit"/>
</svg>