<svg xmlns="http://www.w3.org/2000/svg" width="20" height="20" viewBox="0 0 20 20" fill="inherit">
  <path d="M19.9992 9.99773C19.9992 9.82876 19.9522 9.66311 19.8634 9.51937C19.7747 9.37562 19.6476 9.25947 19.4965 9.18394L16.5776 7.72458L19.4965 6.26976C19.6477 6.19435 19.775 6.07825 19.8639 5.9345C19.9529 5.79075 20 5.62504 20 5.45598C20 5.28692 19.9529 5.12121 19.8639 4.97746C19.775 4.8337 19.6477 4.7176 19.4965 4.64219L10.4063 0.0958959C10.2802 0.0328311 10.141 0 10 0C9.85895 0 9.71984 0.0328311 9.59367 0.0958959L0.503533 4.64219C0.352267 4.7176 0.225014 4.8337 0.136067 4.97746C0.0471196 5.12121 0 5.28692 0 5.45598C0 5.62504 0.0471196 5.79075 0.136067 5.9345C0.225014 6.07825 0.352267 6.19435 0.503533 6.26976L3.42238 7.72458L0.503533 9.18394C0.352267 9.25935 0.225014 9.37545 0.136067 9.51921C0.0471196 9.66296 0 9.82867 0 9.99773C0 10.1668 0.0471196 10.3325 0.136067 10.4762C0.225014 10.62 0.352267 10.7361 0.503533 10.8115L3.42238 12.2709L0.503533 13.7302C0.352267 13.8056 0.225014 13.9217 0.136067 14.0655C0.0471196 14.2093 0 14.375 0 14.544C0 14.7131 0.0471196 14.8788 0.136067 15.0225C0.225014 15.1663 0.352267 15.2824 0.503533 15.3578L9.59367 19.9041C9.71984 19.9672 9.85895 20 10 20C10.141 20 10.2802 19.9672 10.4063 19.9041L19.4965 15.3578C19.6477 15.2824 19.775 15.1663 19.8639 15.0225C19.9529 14.8788 20 14.7131 20 14.544C20 14.375 19.9529 14.2093 19.8639 14.0655C19.775 13.9217 19.6477 13.8056 19.4965 13.7302L16.5776 12.2709L19.4965 10.8161C19.6483 10.7402 19.7758 10.6233 19.8646 10.4787C19.9535 10.3341 20.0001 10.1675 19.9992 9.99773ZM17.0576 14.544L10 18.0738L2.94242 14.544L5.45493 13.2874L9.59367 15.3624C9.71984 15.4254 9.85895 15.4583 10 15.4583C10.141 15.4583 10.2802 15.4254 10.4063 15.3624L14.5451 13.2874L17.0576 14.544ZM10 13.5275L2.94242 9.99773L5.45493 8.74113L9.59367 10.8161C9.71984 10.8791 9.85895 10.912 10 10.912C10.141 10.912 10.2802 10.8791 10.4063 10.8161L14.5451 8.74113L17.0576 9.99773L10 13.5275Z" fill="inherit"/>
</svg>