<svg xmlns="http://www.w3.org/2000/svg" width="20" height="20" viewBox="0 0 20 20" fill="none" overflow="visible">
<path d="M0.664933 11.6649C0.106576 11.1066 0.15175 10.1564 0.765855 9.54231L7.12479 3.18337L5.4607 3.18331C4.62835 3.18331 3.81216 2.54988 3.81216 1.74564C3.81208 0.885077 4.62234 0.270628 5.46074 0.270674L10.7595 0.270703C11.7595 0.270703 12.1341 0.762335 12.1341 1.84318L12.0601 6.94613C12.0601 7.77252 11.4184 8.44564 10.6094 8.44564C9.73842 8.44564 9.1474 7.8726 9.1474 6.94613V5.20598L2.78846 11.5649C2.17436 12.179 1.22329 12.2233 0.664933 11.6649Z" fill="inherit"/>
<path d="M19.3351 8.33505C19.8934 8.89341 19.8482 9.84356 19.2341 10.4577L12.8752 16.8166L14.5393 16.8167C15.3717 16.8167 16.1878 17.4501 16.1878 18.2543C16.1879 19.1149 15.3777 19.7293 14.5393 19.7293L9.24053 19.7293C8.24053 19.7293 7.86586 19.2376 7.86586 18.1568L7.93993 13.0538C7.93993 12.2275 8.58165 11.5543 9.39056 11.5543C10.2616 11.5543 10.8526 12.1274 10.8526 13.0538V14.794L17.2115 8.43506C17.8256 7.82095 18.7767 7.77669 19.3351 8.33505Z" fill="inherit"/>
</svg>