<svg xmlns="http://www.w3.org/2000/svg" width="16" height="16" viewBox="0 0 16 16" fill="inherit">
  <path d="M2.98659 1.69078H13.013L12.099 13.4451C12.0756 13.7442 11.9665 13.9953 11.8503 14.1344C11.7343 14.2731 11.652 14.3092 11.5253 14.3092H4.47323C4.34626 14.3092 4.26441 14.2731 4.1482 14.1344C4.03198 13.9953 3.92259 13.7442 3.89951 13.4451L2.98659 1.69078ZM0.852515 0C-0.284172 0 -0.284172 1.69078 0.852515 1.69078H1.27592L2.19802 13.5741C2.24602 14.1823 2.4551 14.7548 2.83496 15.2121C3.21587 15.6683 3.81189 16 4.47296 16H11.525C12.1877 16 12.7821 15.6683 13.1633 15.2121C13.5444 14.7548 13.7504 14.1823 13.7986 13.5741L14.7223 1.69078H15.1473C16.2842 1.69078 16.2842 0 15.1473 0H0.852515Z" fill="inherit" stroke="none" />
  <line x1="9.75" y1="4.75" x2="9.75" y2="11.25" stroke="inherit" stroke-width="1.5" stroke-linecap="round"/>
  <line x1="6.25" y1="4.75" x2="6.25" y2="11.25" stroke="inherit" stroke-width="1.5" stroke-linecap="round"/>
</svg>