<svg xmlns="http://www.w3.org/2000/svg" width="16" height="16" viewBox="0 0 16 16" fill="inherit">
  <path d="M14.4 4.11111V2.55556C14.4 1.69767 13.6824 1 12.8 1H2.4C1.0768 1 0 2.04689 0 3.33333V12.6667C0 14.3786 1.4352 15 2.4 15H14.4C15.2824 15 16 14.3023 16 13.4444V5.66667C16 4.80878 15.2824 4.11111 14.4 4.11111ZM12.8 11.1111H11.2V8H12.8V11.1111ZM2.4 4.11111C2.19402 4.10215 1.99952 4.01629 1.85702 3.87141C1.71452 3.72653 1.63499 3.5338 1.63499 3.33333C1.63499 3.13287 1.71452 2.94013 1.85702 2.79525C1.99952 2.65037 2.19402 2.56451 2.4 2.55556H12.8V4.11111H2.4Z" fill="inherit"/>
</svg>