<svg width="16" height="16" viewBox="0 0 16 16" fill="none" xmlns="http://www.w3.org/2000/svg">
<path d="M8 0C6.41775 0 4.87103 0.469192 3.55544 1.34824C2.23985 2.22729 1.21447 3.47672 0.608967 4.93853C0.00346629 6.40034 -0.15496 8.00887 0.153721 9.56072C0.462403 11.1126 1.22433 12.538 2.34315 13.6569C3.46197 14.7757 4.88743 15.5376 6.43928 15.8463C7.99113 16.155 9.59966 15.9965 11.0615 15.391C12.5233 14.7855 13.7727 13.7602 14.6518 12.4446C15.5308 11.129 16 9.58225 16 8C16 5.87827 15.1571 3.84344 13.6569 2.34315C12.1566 0.842855 10.1217 0 8 0ZM6.77334 4.10333C6.77334 3.778 6.90257 3.46599 7.13262 3.23595C7.36266 3.0059 7.67467 2.87667 8 2.87667C8.32533 2.87667 8.63734 3.0059 8.86739 3.23595C9.09743 3.46599 9.22667 3.778 9.22667 4.10333V8.12667C9.22667 8.452 9.09743 8.764 8.86739 8.99405C8.63734 9.22409 8.32533 9.35333 8 9.35333C7.67467 9.35333 7.36266 9.22409 7.13262 8.99405C6.90257 8.764 6.77334 8.452 6.77334 8.12667V4.10333ZM8 13.1233C7.75659 13.1233 7.51865 13.0511 7.31631 12.9158C7.11396 12.7805 6.95631 12.5882 6.86332 12.3633C6.77032 12.1383 6.74616 11.8908 6.79389 11.6521C6.84162 11.4135 6.95909 11.1943 7.13145 11.0224C7.3038 10.8505 7.52327 10.7336 7.76209 10.6866C8.00091 10.6395 8.24832 10.6643 8.47302 10.7579C8.69771 10.8515 8.88958 11.0097 9.02433 11.2124C9.15908 11.4151 9.23066 11.6533 9.23 11.8967C9.23 12.058 9.19816 12.2178 9.13631 12.3669C9.07446 12.5159 8.9838 12.6513 8.86954 12.7652C8.75528 12.8792 8.61966 12.9695 8.47045 13.0309C8.32124 13.0924 8.16137 13.1238 8 13.1233Z" fill="currentColor"/>
</svg>
