<svg width="20" height="20" viewBox="0 0 20 20" fill="none" xmlns="http://www.w3.org/2000/svg">
<path d="M1.35596 15.45V18.6919C1.35596 18.8892 1.51621 19.0535 1.71754 19.0535H4.22401C4.42124 19.0535 4.58559 18.8933 4.58559 18.6919V12.9887L2.76533 14.809C2.37909 15.1911 1.88601 15.413 1.35596 15.45Z" fill="#5E616E"/>
<path d="M5.83472 12.9476V18.6919C5.83472 18.8892 5.99497 19.0535 6.1963 19.0535H8.70277C8.9 19.0535 9.06435 18.8933 9.06435 18.6919V15.3103C8.49321 15.2979 7.95904 15.0719 7.55637 14.6693L5.83472 12.9476Z" fill="#5E616E"/>
<path d="M10.3135 14.9528V18.692C10.3135 18.8892 10.4737 19.0535 10.6751 19.0535H13.1815C13.3788 19.0535 13.5431 18.8933 13.5431 18.692V11.793L10.671 14.6652C10.56 14.7761 10.4409 14.8706 10.3135 14.9528Z" fill="#5E616E"/>
<path d="M17.7794 7.55257L14.7922 10.5398V18.6919C14.7922 18.8892 14.9525 19.0535 15.1538 19.0535H17.6603C17.8575 19.0535 18.0219 18.8933 18.0219 18.6919V7.77856C17.9397 7.70871 17.8781 7.64707 17.8329 7.60598L17.7794 7.55257Z" fill="#5E616E"/>
<path d="M19.8298 1.19312C19.7106 1.06574 19.5299 1 19.2998 1C19.2792 1 19.2546 1 19.234 1C18.0671 1.05342 16.9042 1.11094 15.7373 1.16436C15.5811 1.17258 15.3675 1.18079 15.199 1.34926C15.1456 1.40268 15.1045 1.46431 15.0716 1.53827C14.8991 1.91219 15.1415 2.15462 15.2565 2.26967L15.5483 2.56551C15.7496 2.77096 15.9551 2.97641 16.1605 3.17774L9.10955 10.2328L5.94155 7.06481C5.75253 6.8758 5.49778 6.76897 5.22659 6.76897C4.9554 6.76897 4.70475 6.8758 4.51574 7.06481L0.295845 11.2806C-0.0986149 11.6751 -0.0986149 12.3119 0.295845 12.7064L0.484856 12.8954C0.673868 13.0844 0.928623 13.1913 1.19981 13.1913C1.47101 13.1913 1.72165 13.0844 1.91066 12.8954L5.22659 9.57949L8.39459 12.7475C8.5836 12.9365 8.83836 13.0433 9.10955 13.0433C9.38074 13.0433 9.63139 12.9365 9.82451 12.7475L17.7794 4.79256L18.6793 5.68831C18.7861 5.79515 18.9341 5.94307 19.16 5.94307C19.2546 5.94307 19.3491 5.91842 19.4477 5.865C19.5134 5.82802 19.5709 5.78693 19.6202 5.73762C19.7969 5.56094 19.8298 5.33495 19.838 5.15826C19.8709 4.40221 19.9079 3.64617 19.9449 2.88601L19.9983 1.74783C20.0106 1.50951 19.9572 1.32461 19.8298 1.19312Z" fill="#5E616E"/>
</svg>
