<svg width="58" height="54" viewBox="0 0 58 54" fill="none" xmlns="http://www.w3.org/2000/svg">
<mask id="mask0_1922_11456" style="mask-type:luminance" maskUnits="userSpaceOnUse" x="0" y="0" width="58" height="54">
<path d="M58 0H0V54H58V0Z" fill="white"/>
</mask>
<g mask="url(#mask0_1922_11456)">
<path d="M13.1291 17.1041C11.7671 19.8717 11.9426 22.9427 13.424 24.7637C13.1146 22.3971 13.5293 19.99 14.6106 17.8773C15.646 15.736 17.2921 13.9713 19.3286 12.8191H19.0689C16.78 12.8408 14.407 14.5678 13.1291 17.1041Z" fill="#459CF4"/>
<path d="M49.7714 30.5152C49.8486 27.1479 48.4444 24.1058 45.8046 22.7039L43.8598 21.6778L31.2221 15.0877L26.2653 12.4936C24.6856 11.7105 22.8811 11.5535 21.1962 12.0528L13.9716 8.2808C10.756 6.61161 6.52943 8.57706 4.52846 12.6164C2.5275 16.6557 3.51043 21.3671 6.69794 23.0363C6.73568 23.0598 6.77568 23.0792 6.81729 23.0941L13.9435 26.8517C14.55 28.5307 15.748 29.9133 17.2995 30.7248C17.3288 30.7373 17.3616 30.7373 17.3908 30.7248L36.8248 40.8412C39.4857 42.2431 42.7013 41.6144 45.2499 39.5261L47.8827 40.899L52.3691 31.7798L49.7363 30.4647L49.7714 30.5152Z" fill="#459CF4"/>
<path d="M8.03179 38.7171L20.4589 45.524L12.5533 53.8556C12.5031 53.9192 12.4341 53.9643 12.3568 53.9839C12.2795 54.0034 12.1981 53.9965 12.125 53.964H12.0899L0.21044 47.6918C0.115384 47.6382 0.0445046 47.5485 0.0130043 47.4417C-0.0184961 47.335 -0.00810917 47.2199 0.0419374 47.121C0.0597341 47.0852 0.0808983 47.0513 0.105126 47.0198L8.03179 38.7171ZM18.0858 28.1816C18.1359 28.1179 18.2049 28.0728 18.2822 28.0533C18.3595 28.0337 18.441 28.0407 18.5141 28.0732H18.5492L30.4216 34.302C30.4706 34.3264 30.5142 34.3608 30.5499 34.4033C30.5855 34.4456 30.6124 34.495 30.6288 34.5485C30.6453 34.6019 30.6509 34.6583 30.6455 34.7141C30.64 34.7698 30.6236 34.8238 30.5971 34.8729L30.548 34.9524V34.9885L21.3295 44.6786L8.8743 37.85L18.0858 28.1816ZM47.335 34.974C48.5777 32.4449 50.8455 31.0648 52.4252 31.8813C54.0049 32.6979 54.2577 35.4148 53.015 37.9367C51.7723 40.4586 49.5045 41.846 47.9248 41.0294C46.3451 40.2129 46.0853 37.4742 47.335 34.9524V34.974ZM19.0687 11.6196C19.7907 11.6082 20.5074 11.7483 21.175 12.0315C20.5982 12.2023 20.0387 12.4298 19.504 12.7107L19.3215 12.8119H19.0617C16.7729 12.8119 14.3998 14.5678 13.122 17.1041C11.7599 19.8717 11.9354 22.9427 13.4169 24.7637C13.5224 25.4546 13.6966 26.1325 13.9364 26.787C11.0087 24.9732 10.2013 20.5003 12.111 16.5622C13.6205 13.4983 16.4008 11.6196 19.0687 11.6196ZM36.277 9.76971L48.6971 16.62L43.8597 21.6782L31.222 15.0881L36.277 9.76971ZM45.4253 0.137401C45.4717 0.0687314 45.539 0.0179419 45.6166 -0.00692597C45.6941 -0.0317938 45.7775 -0.029319 45.8536 0.000106681L57.7681 6.27951C57.8655 6.3308 57.9402 6.41853 57.9767 6.52469C58.0133 6.63085 58.009 6.74738 57.9647 6.85036C57.9469 6.88613 57.9258 6.92002 57.9015 6.95154L49.5677 15.7023L37.1125 8.87368L45.4253 0.137401Z" fill="white"/>
</g>
</svg>
