<svg xmlns="http://www.w3.org/2000/svg" width="62" height="68" viewBox="0 0 62 68" fill="none">
  <path fill-rule="evenodd" clip-rule="evenodd" d="M59.2891 75.6732C59.2891 72.7983 56.9939 70.4639 54.1674 70.4639C51.3405 70.4639 49.0457 72.7983 49.0457 75.6732C49.0457 78.5485 51.3405 80.8825 54.1674 80.8825C56.9939 80.8825 59.2891 78.5485 59.2891 75.6732ZM17.3086 75.6732C17.3086 78.5485 19.6033 80.8825 22.4303 80.8825C25.2568 80.8825 27.5519 78.5485 27.5519 75.6732C27.5519 72.7983 25.2568 70.4639 22.4303 70.4639C19.6033 70.4639 17.3086 72.7983 17.3086 75.6732ZM43.4205 65.1929C43.4205 62.3181 41.1253 59.9836 38.2988 59.9836C35.4719 59.9836 33.1772 62.3181 33.1772 65.1929C33.1772 68.0683 35.4719 70.4022 38.2988 70.4022C41.1253 70.4022 43.4205 68.0683 43.4205 65.1929Z" fill="#2A2B32"/>
  <path fill-rule="evenodd" clip-rule="evenodd" d="M38.0575 0C36.906 0 35.7872 0.392283 34.8803 1.11432C29.6315 5.29453 8.11323 22.4295 1.97683 27.3159C0.72926 28.3094 0 29.8314 0 31.4434V77.5991C0 84.9719 5.88503 90.9576 13.1338 90.9576H63.4638C70.7126 90.9576 76.5972 84.9719 76.5972 77.5991V13.3582C76.5972 5.9853 70.7126 0 63.4638 0C63.4638 0 43.6815 0 38.0575 0ZM38.0575 1.78411H63.4638C69.7442 1.78411 74.8431 6.97029 74.8431 13.3582V77.5991C74.8431 83.9869 69.7442 89.1731 63.4638 89.1731H13.1338C6.85345 89.1731 1.75452 83.9869 1.75452 77.5991C1.75452 77.5991 1.75452 40.2179 1.75452 31.4434C1.75452 30.38 2.23536 29.3762 3.05851 28.7205L35.962 2.51943C36.5603 2.04321 37.298 1.78411 38.0575 1.78411Z" fill="#212227"/>
  <path fill-rule="evenodd" clip-rule="evenodd" d="M37.4597 1.15892C37.4597 0.867278 37.3199 0.594479 37.0845 0.427459C36.8496 0.26044 36.5494 0.22104 36.2803 0.32168C35.7793 0.508828 35.3064 0.775203 34.8803 1.11438C29.6315 5.29458 8.11328 22.4295 1.97688 27.3159C1.42994 27.751 0.982783 28.2885 0.6531 28.8898C0.501521 29.1664 0.50531 29.5034 0.662783 29.7762C0.820256 30.049 1.10783 30.2165 1.41899 30.2165H24.3263C31.5751 30.2165 37.4597 24.2312 37.4597 16.8583V1.15892Z" fill="#212227"/>
  <path fill-rule="evenodd" clip-rule="evenodd" d="M42.7676 7.4169V22.6414C42.7676 23.4551 43.0855 24.2354 43.6509 24.8105C44.2164 25.3856 44.9836 25.7086 45.7831 25.7086H69.3052C70.1052 25.7086 70.8719 25.3856 71.4374 24.8105C72.0033 24.2354 72.3207 23.4551 72.3207 22.6414C72.3207 19.3186 72.3207 13.3581 72.3207 13.3581C72.3207 8.38604 68.3523 4.34973 63.4639 4.34973H45.7831C44.1179 4.34973 42.7676 5.72315 42.7676 7.4169Z" fill="#212227"/>
  <path fill-rule="evenodd" clip-rule="evenodd" d="M19.0001 40.9335H62.4151C62.8989 40.9335 63.2921 40.5335 63.2921 40.0414C63.2921 39.5489 62.8989 39.1489 62.4151 39.1489H19.0001C18.5159 39.1489 18.123 39.5489 18.123 40.0414C18.123 40.5335 18.5159 40.9335 19.0001 40.9335Z" fill="#2A2B32"/>
  <path fill-rule="evenodd" clip-rule="evenodd" d="M14.1815 49.6331H62.4154C62.8992 49.6331 63.2925 49.2335 63.2925 48.7411C63.2925 48.2486 62.8992 47.849 62.4154 47.849H14.1815C13.6973 47.849 13.3044 48.2486 13.3044 48.7411C13.3044 49.2335 13.6973 49.6331 14.1815 49.6331Z" fill="#2A2B32"/>
  <path fill-rule="evenodd" clip-rule="evenodd" d="M71.5426 2.96604C71.151 2.88981 70.7586 3.09194 70.5868 3.45768C70.415 3.82341 70.5072 4.26108 70.8112 4.52317C73.2765 6.64689 74.8432 9.8177 74.8432 13.3581V77.599C74.8432 83.9869 69.7443 89.173 63.4639 89.173H47.8774C47.4252 89.173 47.0467 89.5229 47.0042 89.9812C46.9616 90.4394 47.269 90.8557 47.7132 90.9417L72.583 95.7617C79.7034 97.142 86.5859 92.3824 87.943 85.1402L99.7661 22.0345C101.123 14.7923 96.4436 7.79205 89.3232 6.41221L71.5426 2.96604Z" fill="#212227"/>
</svg>