<svg xmlns="http://www.w3.org/2000/svg" width="60" height="68" viewBox="0 0 60 68" fill="none">
  <path fill-rule="evenodd" clip-rule="evenodd" d="M57.7623 28.1015V23.35C57.7623 21.5905 58.4651 19.9025 59.7161 18.6586L64.9452 13.4564C65.332 13.0716 65.332 12.4468 64.9452 12.0619C64.5583 11.6771 63.9302 11.6771 63.5433 12.0619C63.5433 12.0619 60.515 15.0744 58.3138 17.2636C56.6911 18.8782 55.7794 21.0675 55.7794 23.35V28.1015C55.7794 28.6458 56.2239 29.0879 56.7711 29.0879C57.3178 29.0879 57.7623 28.6458 57.7623 28.1015Z" fill="#2A2B32"/>
  <path fill-rule="evenodd" clip-rule="evenodd" d="M33.2201 28.1015V23.35C33.2201 21.0675 32.3088 18.8782 30.6857 17.2636C28.4849 15.0744 25.4566 12.0619 25.4566 12.0619C25.0698 11.6771 24.4412 11.6771 24.0543 12.0619C23.6674 12.4468 23.6674 13.0716 24.0543 13.4564C24.0543 13.4564 27.0826 16.4688 29.2839 18.6586C30.5349 19.9025 31.2377 21.5905 31.2377 23.35V28.1015C31.2377 28.6458 31.6817 29.0879 32.2289 29.0879C32.7761 29.0879 33.2201 28.6458 33.2201 28.1015Z" fill="#2A2B32"/>
  <path fill-rule="evenodd" clip-rule="evenodd" d="M77.4435 11.2004C77.4435 7.30524 74.2639 4.14277 70.3481 4.14277C66.4324 4.14277 63.2532 7.30524 63.2532 11.2004C63.2532 15.0957 66.4324 18.2581 70.3481 18.2581C74.2639 18.2581 77.4435 15.0957 77.4435 11.2004ZM11.5573 11.2004C11.5573 15.0957 14.7364 18.2581 18.6521 18.2581C22.5683 18.2581 25.7475 15.0957 25.7475 11.2004C25.7475 7.30524 22.5683 4.14277 18.6521 4.14277C14.7364 4.14277 11.5573 7.30524 11.5573 11.2004ZM51.5955 7.05815C51.5955 3.16246 48.4163 0 44.5001 0C40.5844 0 37.4052 3.16246 37.4052 7.05815C37.4052 10.9534 40.5844 14.1158 44.5001 14.1158C48.4163 14.1158 51.5955 10.9534 51.5955 7.05815Z" fill="#2A2B32"/>
  <path fill-rule="evenodd" clip-rule="evenodd" d="M43.5085 13.1298V28.1014C43.5085 28.6458 43.953 29.0879 44.4997 29.0879C45.047 29.0879 45.4914 28.6458 45.4914 28.1014V13.1298C45.4914 12.5854 45.047 12.1438 44.4997 12.1438C43.953 12.1438 43.5085 12.5854 43.5085 13.1298Z" fill="#2A2B32"/>
  <path fill-rule="evenodd" clip-rule="evenodd" d="M89 34.8803C89 30.5951 85.5021 27.1155 81.1942 27.1155H7.80579C3.49747 27.1155 0 30.5951 0 34.8803C0 39.1661 3.49747 42.6457 7.80579 42.6457H81.1942C85.5021 42.6457 89 39.1661 89 34.8803Z" fill="#212227"/>
  <path fill-rule="evenodd" clip-rule="evenodd" d="M80.3215 41.6753C80.3258 41.4112 80.2235 41.156 80.0369 40.9676C79.8509 40.7792 79.5963 40.6732 79.3303 40.6732H9.67015C9.40463 40.6732 9.15005 40.7792 8.96352 40.9676C8.77746 41.156 8.67468 41.4112 8.67896 41.6753C8.67896 41.6753 8.88595 54.4691 9.00492 61.8174C9.06154 65.3036 10.4743 68.6327 12.9464 71.1045C17.0515 75.2099 23.7176 81.8752 27.5687 85.7264C29.365 87.5223 30.5146 89.8578 30.8401 92.3703C31.1703 94.9241 31.6076 98.2991 32.0226 101.506C32.8306 107.748 38.1724 112.421 44.4988 112.421H44.5021C50.828 112.421 56.1704 107.748 56.9784 101.506C57.3933 98.2991 57.8301 94.9241 58.1608 92.3703C58.4858 89.8578 59.636 87.5223 61.4318 85.7264C65.2833 81.8752 71.949 75.2099 76.0546 71.1045C78.5266 68.6327 79.9394 65.3036 79.9955 61.8174C80.1145 54.4691 80.3215 41.6753 80.3215 41.6753ZM78.3229 42.6457L78.0132 61.7852C77.9651 64.7616 76.7593 67.6036 74.6489 69.7138C70.5433 73.8187 63.8777 80.4845 60.0266 84.3352C57.9224 86.4392 56.5753 89.1752 56.1942 92.1185C55.8639 94.6718 55.4266 98.0472 55.0117 101.254C54.3312 106.512 49.8311 110.449 44.5021 110.449C44.5007 110.449 44.4998 110.449 44.4988 110.449C39.1698 110.449 34.6697 106.512 33.9893 101.254C33.5738 98.0472 33.137 94.6718 32.8063 92.1185C32.4256 89.1752 31.0785 86.4392 28.9743 84.3352C25.1233 80.4845 18.4571 73.8187 14.352 69.7138C12.2416 67.6036 11.0358 64.7616 10.9873 61.7857L10.678 42.6457H78.3229Z" fill="#212227"/>
  <path fill-rule="evenodd" clip-rule="evenodd" d="M18.3493 51.5334H33.4927C34.0399 51.5334 34.4839 51.0913 34.4839 50.5474C34.4839 50.003 34.0399 49.5609 33.4927 49.5609H18.3493C17.8021 49.5609 17.3577 50.003 17.3577 50.5474C17.3577 51.0913 17.8021 51.5334 18.3493 51.5334Z" fill="#212227"/>
  <path fill-rule="evenodd" clip-rule="evenodd" d="M18.3493 60.8863H36.5214C37.0687 60.8863 37.5126 60.4447 37.5126 59.9003C37.5126 59.3559 37.0687 58.9143 36.5214 58.9143H18.3493C17.8021 58.9143 17.3577 59.3559 17.3577 59.9003C17.3577 60.4447 17.8021 60.8863 18.3493 60.8863Z" fill="#212227"/>
</svg>