<svg xmlns="http://www.w3.org/2000/svg" width="70" height="68" viewBox="0 0 70 68" fill="none">
  <path fill-rule="evenodd" clip-rule="evenodd" d="M62.0559 75.2133V62.0393C62.0559 61.1845 62.3956 60.3641 63.0003 59.7599L65.8713 56.8884C66.2548 56.5049 66.2548 55.8822 65.8713 55.4987C65.4878 55.1152 64.8651 55.1152 64.4816 55.4987C64.4816 55.4987 62.8187 57.1611 61.6101 58.3697C60.6369 59.3428 60.0902 60.6628 60.0902 62.0393V75.2133C60.0902 75.7558 60.5308 76.1964 61.0733 76.1964C61.6153 76.1964 62.0559 75.7558 62.0559 75.2133Z" fill="#2A2B32"/>
  <path fill-rule="evenodd" clip-rule="evenodd" d="M51.9116 75.2133V62.0393C51.9116 60.6628 51.3649 59.3428 50.3917 58.3697C49.1831 57.1611 47.5207 55.4987 47.5207 55.4987C47.1372 55.1152 46.5141 55.1152 46.1305 55.4987C45.747 55.8822 45.747 56.5049 46.1305 56.8884L49.002 59.7599C49.6067 60.3641 49.9464 61.1845 49.9464 62.0393V75.2133C49.9464 75.7558 50.3865 76.1964 50.929 76.1964C51.4715 76.1964 51.9116 75.7558 51.9116 75.2133Z" fill="#2A2B32"/>
  <path fill-rule="evenodd" clip-rule="evenodd" d="M72.8586 56.1937C72.8586 53.8015 70.9171 51.8594 68.5262 51.8594C66.1348 51.8594 64.1933 53.8015 64.1933 56.1937C64.1933 58.5858 66.1348 60.5275 68.5262 60.5275C70.9171 60.5275 72.8586 58.5858 72.8586 56.1937ZM39.1426 56.1937C39.1426 58.5858 41.0841 60.5275 43.4754 60.5275C45.8668 60.5275 47.8083 58.5858 47.8083 56.1937C47.8083 53.8015 45.8668 51.8594 43.4754 51.8594C41.0841 51.8594 39.1426 53.8015 39.1426 56.1937ZM60.3334 48.0577C60.3334 45.666 58.392 43.7239 56.0006 43.7239C53.6097 43.7239 51.6682 45.666 51.6682 48.0577C51.6682 50.4498 53.6097 52.392 56.0006 52.392C58.392 52.392 60.3334 50.4498 60.3334 48.0577Z" fill="#2A2B32"/>
  <path fill-rule="evenodd" clip-rule="evenodd" d="M55.0179 51.4092V75.869C55.0179 76.4115 55.4585 76.8517 56.0006 76.8517C56.5431 76.8517 56.9837 76.4115 56.9837 75.869V51.4092C56.9837 50.8667 56.5431 50.4261 56.0006 50.4261C55.4585 50.4261 55.0179 50.8667 55.0179 51.4092Z" fill="#2A2B32"/>
  <path fill-rule="evenodd" clip-rule="evenodd" d="M56.0004 29.4832C41.3603 29.4832 29.4741 41.3732 29.4741 56.0181C29.4741 70.6635 41.3603 82.553 56.0004 82.553C70.6411 82.553 82.5267 70.6635 82.5267 56.0181C82.5267 41.3732 70.6411 29.4832 56.0004 29.4832ZM56.0004 37.1502C66.4105 37.1502 74.8626 45.6046 74.8626 56.0181C74.8626 66.4316 66.4105 74.8865 56.0004 74.8865C45.5903 74.8865 37.1387 66.4316 37.1387 56.0181C37.1387 45.6046 45.5903 37.1502 56.0004 37.1502Z" fill="#212227"/>
  <path fill-rule="evenodd" clip-rule="evenodd" d="M75.1127 93.1157H71.1825C70.6402 93.1157 70.2002 93.5563 70.2002 94.0987C70.2002 94.6408 70.6402 95.0814 71.1825 95.0814H75.1127C75.6545 95.0814 76.095 94.6408 76.095 94.0987C76.095 93.5563 75.6545 93.1157 75.1127 93.1157ZM67.2529 93.1157H63.3232C62.7809 93.1157 62.3404 93.5563 62.3404 94.0987C62.3404 94.6408 62.7809 95.0814 63.3232 95.0814H67.2529C67.7952 95.0814 68.2352 94.6408 68.2352 94.0987C68.2352 93.5563 67.7952 93.1157 67.2529 93.1157ZM82.972 93.1157H79.0423C78.5 93.1157 78.06 93.5563 78.06 94.0987C78.06 94.6408 78.5 95.0814 79.0423 95.0814H82.972C83.5143 95.0814 83.9548 94.6408 83.9548 94.0987C83.9548 93.5563 83.5143 93.1157 82.972 93.1157ZM59.3931 93.1157H55.4634C54.9211 93.1157 54.4811 93.5563 54.4811 94.0987C54.4811 94.6408 54.9211 95.0814 55.4634 95.0814H59.3931C59.9354 95.0814 60.3758 94.6408 60.3758 94.0987C60.3758 93.5563 59.9354 93.1157 59.3931 93.1157ZM35.8141 93.1157H31.8844C31.3421 93.1157 30.9021 93.5563 30.9021 94.0987C30.9021 94.6408 31.3421 95.0814 31.8844 95.0814H35.8141C36.3564 95.0814 36.7969 94.6408 36.7969 94.0987C36.7969 93.5563 36.3564 93.1157 35.8141 93.1157ZM51.5337 93.1157H47.6036C47.0613 93.1157 46.6213 93.5563 46.6213 94.0987C46.6213 94.6408 47.0613 95.0814 47.6036 95.0814H51.5337C52.0756 95.0814 52.516 94.6408 52.516 94.0987C52.516 93.5563 52.0756 93.1157 51.5337 93.1157ZM43.6739 93.1157H39.7442C39.2019 93.1157 38.7615 93.5563 38.7615 94.0987C38.7615 94.6408 39.2019 95.0814 39.7442 95.0814H43.6739C44.2162 95.0814 44.6562 94.6408 44.6562 94.0987C44.6562 93.5563 44.2162 93.1157 43.6739 93.1157ZM18.6755 83.3178V79.3868C18.6755 78.8443 18.2351 78.4042 17.6927 78.4042C17.1509 78.4042 16.7104 78.8443 16.7104 79.3868V83.3178C16.7104 83.8603 17.1509 84.3009 17.6927 84.3009C18.2351 84.3009 18.6755 83.8603 18.6755 83.3178ZM93.3241 75.9205V79.852C93.3241 80.3944 93.7641 80.8346 94.3064 80.8346C94.8487 80.8346 95.2892 80.3944 95.2892 79.852V75.9205C95.2892 75.3785 94.8487 74.9379 94.3064 74.9379C93.7641 74.9379 93.3241 75.3785 93.3241 75.9205ZM18.6755 75.4559V71.5245C18.6755 70.982 18.2351 70.5418 17.6927 70.5418C17.1509 70.5418 16.7104 70.982 16.7104 71.5245V75.4559C16.7104 75.9979 17.1509 76.4385 17.6927 76.4385C18.2351 76.4385 18.6755 75.9979 18.6755 75.4559ZM93.3241 68.0586V71.9896C93.3241 72.5321 93.7641 72.9722 94.3064 72.9722C94.8487 72.9722 95.2892 72.5321 95.2892 71.9896V68.0586C95.2892 67.5162 94.8487 67.0756 94.3064 67.0756C93.7641 67.0756 93.3241 67.5162 93.3241 68.0586ZM18.6755 67.5935V63.6626C18.6755 63.1201 18.2351 62.6795 17.6927 62.6795C17.1509 62.6795 16.7104 63.1201 16.7104 63.6626V67.5935C16.7104 68.136 17.1509 68.5761 17.6927 68.5761C18.2351 68.5761 18.6755 68.136 18.6755 67.5935ZM93.3241 60.1963V64.1272C93.3241 64.6697 93.7641 65.1103 94.3064 65.1103C94.8487 65.1103 95.2892 64.6697 95.2892 64.1272V60.1963C95.2892 59.6538 94.8487 59.2137 94.3064 59.2137C93.7641 59.2137 93.3241 59.6538 93.3241 60.1963ZM18.6755 59.7312V55.8002C18.6755 55.2577 18.2351 54.8176 17.6927 54.8176C17.1509 54.8176 16.7104 55.2577 16.7104 55.8002V59.7312C16.7104 60.2736 17.1509 60.7142 17.6927 60.7142C18.2351 60.7142 18.6755 60.2736 18.6755 59.7312ZM93.3241 52.3339V56.2653C93.3241 56.8078 93.7641 57.248 94.3064 57.248C94.8487 57.248 95.2892 56.8078 95.2892 56.2653V52.3339C95.2892 51.7919 94.8487 51.3513 94.3064 51.3513C93.7641 51.3513 93.3241 51.7919 93.3241 52.3339ZM18.6755 51.8693V47.9378C18.6755 47.3958 18.2351 46.9552 17.6927 46.9552C17.1509 46.9552 16.7104 47.3958 16.7104 47.9378V51.8693C16.7104 52.4113 17.1509 52.8519 17.6927 52.8519C18.2351 52.8519 18.6755 52.4113 18.6755 51.8693ZM93.3241 44.472V48.403C93.3241 48.9455 93.7641 49.3856 94.3064 49.3856C94.8487 49.3856 95.2892 48.9455 95.2892 48.403V44.472C95.2892 43.9295 94.8487 43.4889 94.3064 43.4889C93.7641 43.4889 93.3241 43.9295 93.3241 44.472ZM18.6755 44.0069V40.076C18.6755 39.5335 18.2351 39.0929 17.6927 39.0929C17.1509 39.0929 16.7104 39.5335 16.7104 40.076V44.0069C16.7104 44.5494 17.1509 44.9895 17.6927 44.9895C18.2351 44.9895 18.6755 44.5494 18.6755 44.0069ZM93.3241 36.6097V40.5406C93.3241 41.0831 93.7641 41.5237 94.3064 41.5237C94.8487 41.5237 95.2892 41.0831 95.2892 40.5406V36.6097C95.2892 36.0672 94.8487 35.627 94.3064 35.627C93.7641 35.627 93.3241 36.0672 93.3241 36.6097ZM18.6755 36.1445V32.2136C18.6755 31.6711 18.2351 31.231 17.6927 31.231C17.1509 31.231 16.7104 31.6711 16.7104 32.2136V36.1445C16.7104 36.687 17.1509 37.1276 17.6927 37.1276C18.2351 37.1276 18.6755 36.687 18.6755 36.1445ZM93.3241 28.7473V32.6787C93.3241 33.2212 93.7641 33.6613 94.3064 33.6613C94.8487 33.6613 95.2892 33.2212 95.2892 32.6787V28.7473C95.2892 28.2053 94.8487 27.7647 94.3064 27.7647C93.7641 27.7647 93.3241 28.2053 93.3241 28.7473ZM67.789 18.4428H71.7192C72.261 18.4428 72.7015 18.0027 72.7015 17.4602C72.7015 16.9177 72.261 16.4775 71.7192 16.4775H67.789C67.2467 16.4775 66.8067 16.9177 66.8067 17.4602C66.8067 18.0027 67.2467 18.4428 67.789 18.4428ZM28.491 18.4428H32.4206C32.9629 18.4428 33.4034 18.0027 33.4034 17.4602C33.4034 16.9177 32.9629 16.4775 32.4206 16.4775H28.491C27.9486 16.4775 27.5087 16.9177 27.5087 17.4602C27.5087 18.0027 27.9486 18.4428 28.491 18.4428ZM52.0699 18.4428H55.9996C56.5419 18.4428 56.9823 18.0027 56.9823 17.4602C56.9823 16.9177 56.5419 16.4775 55.9996 16.4775H52.0699C51.5276 16.4775 51.0876 16.9177 51.0876 17.4602C51.0876 18.0027 51.5276 18.4428 52.0699 18.4428ZM59.9297 18.4428H63.8594C64.4017 18.4428 64.8417 18.0027 64.8417 17.4602C64.8417 16.9177 64.4017 16.4775 63.8594 16.4775H59.9297C59.3874 16.4775 58.9469 16.9177 58.9469 17.4602C58.9469 18.0027 59.3874 18.4428 59.9297 18.4428ZM75.6489 18.4428H79.5785C80.1208 18.4428 80.5613 18.0027 80.5613 17.4602C80.5613 16.9177 80.1208 16.4775 79.5785 16.4775H75.6489C75.1065 16.4775 74.6666 16.9177 74.6666 17.4602C74.6666 18.0027 75.1065 18.4428 75.6489 18.4428ZM83.4577 18.4414L83.5087 18.4428C83.5087 18.4428 84.8182 16.4775 83.5087 16.4775C82.9663 16.4775 82.5259 16.9177 82.5259 17.4602C82.5259 17.9857 82.939 18.4154 83.4577 18.4414ZM36.3508 18.4428H40.2804C40.8228 18.4428 41.2627 18.0027 41.2627 17.4602C41.2627 16.9177 40.8228 16.4775 40.2804 16.4775H36.3508C35.8085 16.4775 35.368 16.9177 35.368 17.4602C35.368 18.0027 35.8085 18.4428 36.3508 18.4428ZM44.2101 18.4428H48.1402C48.6821 18.4428 49.1225 18.0027 49.1225 17.4602C49.1225 16.9177 48.6821 16.4775 48.1402 16.4775H44.2101C43.6678 16.4775 43.2278 16.9177 43.2278 17.4602C43.2278 18.0027 43.6678 18.4428 44.2101 18.4428Z" fill="#212227"/>
  <path fill-rule="evenodd" clip-rule="evenodd" d="M0.563065 8.81845C0.19712 9.70578 0 10.6691 0 11.6597V18.7862C0 21.4477 1.41945 23.9073 3.72359 25.238C5.92114 26.507 8.81617 28.1788 11.0133 29.4478C11.8715 29.9436 12.8038 30.2544 13.7545 30.3809V15.7869C12.8038 15.6605 11.8715 15.3496 11.0133 14.8538L0.563065 8.81845ZM28.9111 8.81892L18.4604 14.8538C17.6026 15.3496 16.6703 15.6605 15.7196 15.7869V30.3809C16.6703 30.2544 17.6026 29.9436 18.4604 29.4478C20.658 28.1788 23.553 26.507 25.7501 25.238C28.0542 23.9073 29.4737 21.4477 29.4737 18.7862C29.4737 16.5997 29.4737 13.8466 29.4737 11.6597C29.4737 10.6691 29.277 9.70578 28.9111 8.81892ZM1.54536 7.11644C2.13012 6.35553 2.86578 5.7036 3.72359 5.20828C5.92114 3.93932 8.81617 2.26703 11.0133 0.998068C13.3174 -0.332689 16.1563 -0.332689 18.4604 0.998068C20.658 2.26703 23.553 3.93932 25.7501 5.20828C26.6084 5.7036 27.3436 6.35553 27.9288 7.11644C23.5766 9.62983 17.4781 13.1518 17.4781 13.1518C15.7819 14.1316 13.6923 14.1316 11.996 13.1518L1.54536 7.11644Z" fill="#212227"/>
</svg>