<svg width="16" height="16" viewBox="0 0 16 16" fill="none" xmlns="http://www.w3.org/2000/svg">
<g clip-path="url(#clip0_3940_81)">
<path d="M14.4757 1.31053C13.922 0.765195 13.1774 0.457371 12.4003 0.45253H3.60033C1.40033 0.45253 0.666992 1.76593 0.666992 3.38586V14.3859C0.666992 14.522 0.704916 14.6555 0.776515 14.7714C0.848114 14.8872 0.950558 14.9809 1.07237 15.0418C1.19418 15.1027 1.33054 15.1285 1.46618 15.1162C1.60182 15.104 1.73137 15.0542 1.84033 14.9725L3.09433 14.0339C3.23701 13.9277 3.41324 13.8767 3.59056 13.8902C3.76789 13.9036 3.93438 13.9807 4.05939 14.1072L5.27819 15.3333C5.41652 15.4715 5.60406 15.5491 5.79959 15.5491C5.99513 15.5491 6.18266 15.4715 6.32099 15.3333L7.55299 14.1013C7.67708 13.9769 7.84202 13.9017 8.01729 13.8896C8.19255 13.8775 8.36629 13.9292 8.50632 14.0353L9.76032 14.974C9.86928 15.0557 9.99883 15.1055 10.1345 15.1177C10.2701 15.1299 10.4065 15.1041 10.5283 15.0432C10.6501 14.9823 10.7525 14.8887 10.8241 14.7729C10.8957 14.657 10.9337 14.5235 10.9337 14.3873V7.054H13.4453C13.6983 7.07324 13.9525 7.03755 14.1905 6.94937C14.4284 6.86118 14.6445 6.72259 14.8238 6.54309C15.0032 6.36359 15.1416 6.14743 15.2296 5.90943C15.3176 5.67142 15.3531 5.4172 15.3337 5.1642V3.38586C15.3323 2.60806 15.0239 1.86224 14.4757 1.31053ZM7.45033 9.0692H4.15033C4.00446 9.0692 3.86456 9.01125 3.76142 8.9081C3.65827 8.80496 3.60033 8.66506 3.60033 8.5192C3.60033 8.37333 3.65827 8.23343 3.76142 8.13029C3.86456 8.02714 4.00446 7.9692 4.15033 7.9692H7.45033C7.59619 7.9692 7.73609 8.02714 7.83923 8.13029C7.94238 8.23343 8.00033 8.37333 8.00033 8.5192C8.00033 8.66506 7.94238 8.80496 7.83923 8.9081C7.73609 9.01125 7.59619 9.0692 7.45033 9.0692ZM8.00033 6.13586H3.60033C3.45446 6.13586 3.31456 6.07792 3.21142 5.97477C3.10827 5.87163 3.05033 5.73173 3.05033 5.58586C3.05033 5.43999 3.10827 5.3001 3.21142 5.19695C3.31456 5.09381 3.45446 5.03586 3.60033 5.03586H8.00033C8.14619 5.03586 8.28609 5.09381 8.38923 5.19695C8.49238 5.3001 8.55032 5.43999 8.55032 5.58586C8.55032 5.73173 8.49238 5.87163 8.38923 5.97477C8.28609 6.07792 8.14619 6.13586 8.00033 6.13586ZM14.2337 5.1642C14.2337 5.7098 13.9902 5.95253 13.4453 5.95253H12.0337V1.9258C12.035 1.82721 12.0747 1.73304 12.1445 1.66333C12.2142 1.59361 12.3083 1.55386 12.4069 1.55253C12.8916 1.55486 13.3557 1.74904 13.6976 2.0926C14.0395 2.43617 14.2315 2.90115 14.2315 3.38586L14.2337 5.1642Z" fill="currentColor"/>
</g>
<defs>
<clipPath id="clip0_3940_81">
<rect width="16" height="16" fill="currentColor"/>
</clipPath>
</defs>
</svg>
