<svg width="16" height="16" viewBox="0 0 16 16" fill="none" xmlns="http://www.w3.org/2000/svg">
<path fill-rule="evenodd" clip-rule="evenodd" d="M8 16C10.1217 16 12.1566 15.1571 13.6569 13.6569C15.1571 12.1566 16 10.1217 16 8C16 5.87827 15.1571 3.84344 13.6569 2.34315C12.1566 0.842855 10.1217 0 8 0C5.87827 0 3.84344 0.842855 2.34315 2.34315C0.842855 3.84344 0 5.87827 0 8C0 10.1217 0.842855 12.1566 2.34315 13.6569C3.84344 15.1571 5.87827 16 8 16ZM11.7072 6.7072C11.8948 6.51964 12.0001 6.26525 12.0001 6C12.0001 5.73475 11.8948 5.48036 11.7072 5.2928C11.5196 5.10524 11.2653 4.99987 11 4.99987C10.7347 4.99987 10.4804 5.10524 10.2928 5.2928L7 8.5864L5.7072 7.2928C5.51964 7.10524 5.26525 6.99987 5 6.99987C4.73475 6.99987 4.48036 7.10524 4.2928 7.2928C4.10524 7.48036 3.99987 7.73475 3.99987 8C3.99987 8.26525 4.10524 8.51964 4.2928 8.7072L6.2928 10.7072C6.38566 10.8001 6.49591 10.8738 6.61726 10.924C6.7386 10.9743 6.86866 11.0002 7 11.0002C7.13134 11.0002 7.2614 10.9743 7.38274 10.924C7.50409 10.8738 7.61434 10.8001 7.7072 10.7072L11.7072 6.7072Z" fill="currentColor"/>
</svg>
