<svg width="16" height="16" viewBox="0 0 16 16" fill="none" xmlns="http://www.w3.org/2000/svg">
<g clip-path="url(#clip0_3151_4706)">
<path d="M8 0C6.41775 0 4.87103 0.469192 3.55544 1.34824C2.23985 2.22729 1.21447 3.47672 0.608967 4.93853C0.00346625 6.40034 -0.15496 8.00887 0.153721 9.56072C0.462403 11.1126 1.22433 12.538 2.34315 13.6569C3.46197 14.7757 4.88743 15.5376 6.43928 15.8463C7.99113 16.155 9.59966 15.9965 11.0615 15.391C12.5233 14.7855 13.7727 13.7602 14.6518 12.4446C15.5308 11.129 16 9.58225 16 8C16 5.87827 15.1571 3.84344 13.6569 2.34315C12.1566 0.842855 10.1217 0 8 0ZM10.9284 5.12526C11.1315 5.12506 11.3301 5.1851 11.499 5.29779C11.6679 5.41048 11.7997 5.57076 11.8775 5.75834C11.9553 5.94592 11.9757 6.15236 11.9361 6.35155C11.8966 6.55073 11.7988 6.7337 11.6552 6.87729C11.5116 7.02089 11.3286 7.11866 11.1294 7.15823C10.9303 7.19779 10.7238 7.17738 10.5362 7.09957C10.3487 7.02176 10.1884 6.89005 10.0757 6.72111C9.96299 6.55218 9.90295 6.3536 9.90316 6.15053C9.90316 5.87861 10.0112 5.61783 10.2035 5.42556C10.3957 5.23328 10.6565 5.12526 10.9284 5.12526ZM5.07158 5.12526C5.27466 5.12506 5.47323 5.1851 5.64217 5.29779C5.81111 5.41048 5.94282 5.57076 6.02063 5.75834C6.09844 5.94592 6.11885 6.15236 6.07928 6.35155C6.03971 6.55073 5.94195 6.7337 5.79835 6.87729C5.65475 7.02089 5.47179 7.11866 5.2726 7.15823C5.07342 7.19779 4.86697 7.17738 4.67939 7.09957C4.49182 7.02176 4.33154 6.89005 4.21885 6.72111C4.10615 6.55218 4.04611 6.3536 4.04632 6.15053C4.0466 5.8787 4.15471 5.61808 4.34692 5.42586C4.53913 5.23365 4.79975 5.12554 5.07158 5.12526ZM12.5053 10.04C12.1695 11.9568 10.28 13.2863 8 13.2863C5.72 13.2863 3.83158 11.9568 3.49579 10.04C3.49219 10.0205 3.49007 10.0008 3.48948 9.98105C3.48948 9.70421 3.82632 9.52526 4.12106 9.62632C5.2579 10.0189 6.58421 10.2189 8.00106 10.2189C9.4179 10.2189 10.7442 10.0189 11.8811 9.62632C12.1747 9.52105 12.5126 9.70316 12.5126 9.98105C12.5117 10.0009 12.5092 10.0206 12.5053 10.04Z" fill="#5E616E"/>
</g>
<defs>
<clipPath id="clip0_3151_4706">
<rect width="16" height="16" fill="white"/>
</clipPath>
</defs>
</svg>
