<svg width="16" height="16" viewBox="0 0 16 16" fill="none" xmlns="http://www.w3.org/2000/svg">
<path d="M0.531952 9.33194C0.0852666 8.88525 0.121406 8.12513 0.61269 7.63385L5.69984 2.54671L4.36857 2.54665C3.70268 2.54665 3.04974 2.03991 3.04974 1.39651C3.04967 0.708068 3.69788 0.216508 4.3686 0.216545L8.60758 0.216569C9.40758 0.216569 9.70732 0.609874 9.70732 1.47455L9.64806 5.55691C9.64806 6.21802 9.13469 6.75651 8.48756 6.75651C7.79074 6.75651 7.31792 6.29809 7.31792 5.55691L7.31792 4.16479L2.23078 9.25194C1.73949 9.74322 0.978638 9.77863 0.531952 9.33194Z" fill="white"/>
<path d="M15.468 6.66806C15.9147 7.11475 15.8786 7.87487 15.3873 8.36615L10.3002 13.4533L11.6314 13.4533C12.2973 13.4533 12.9503 13.9601 12.9503 14.6035C12.9503 15.2919 12.3021 15.7835 11.6314 15.7835L7.39242 15.7834C6.59242 15.7834 6.29268 15.3901 6.29268 14.5255L6.35194 10.4431C6.35194 9.78198 6.86531 9.24349 7.51244 9.24349C8.20926 9.24349 8.68208 9.70191 8.68208 10.4431L8.68208 11.8352L13.7692 6.74806C14.2605 6.25678 15.0214 6.22137 15.468 6.66806Z" fill="white"/>
</svg>
