<svg width="16" height="16" viewBox="0 0 16 16" fill="none" xmlns="http://www.w3.org/2000/svg">
<path d="M4.1108 16C3.47909 16 2.96716 15.437 2.96716 14.7422L2.96716 4.81649L1.95267 5.93227C1.50584 6.42371 0.781954 6.42371 0.335123 5.93227C-0.111708 5.44082 -0.111708 4.64466 0.335123 4.15322L3.30254 0.889524C3.74937 0.39808 4.47326 0.39808 4.92009 0.889524L7.88751 4.15322C8.33434 4.64466 8.33434 5.44082 7.88751 5.93227C7.44068 6.42371 6.71679 6.42371 6.26996 5.93227L5.25547 4.81649L5.25547 14.7422C5.25547 15.437 4.7425 16 4.1108 16ZM11.8892 -1.79689e-07C12.5209 -1.52076e-07 13.0328 0.56304 13.0328 1.25782L13.0328 11.1835L14.0473 10.0677C14.4942 9.57629 15.218 9.57629 15.6649 10.0677C16.1117 10.5592 16.1117 11.3553 15.6649 11.8468L12.6975 15.1105C12.2506 15.6019 11.5267 15.6019 11.0799 15.1105L8.11249 11.8468C7.66566 11.3553 7.66566 10.5592 8.11249 10.0677C8.55932 9.57629 9.28321 9.57629 9.73004 10.0677L10.7445 11.1835L10.7445 1.25782C10.7445 0.56304 11.2575 -2.07302e-07 11.8892 -1.79689e-07Z" fill="#8B8E9C"/>
</svg>
