<svg width="42" height="42" viewBox="0 0 42 42" fill="none" xmlns="http://www.w3.org/2000/svg">
<circle cx="21" cy="21" r="20.5" fill="#1C1D21" stroke="#2A2B32"/>
<path d="M17.1108 29C16.4791 29 15.9672 28.437 15.9672 27.7422L15.9672 17.8165L14.9527 18.9323C14.5058 19.4237 13.782 19.4237 13.3351 18.9323C12.8883 18.4408 12.8883 17.6447 13.3351 17.1532L16.3025 13.8895C16.7494 13.3981 17.4733 13.3981 17.9201 13.8895L20.8875 17.1532C21.3343 17.6447 21.3343 18.4408 20.8875 18.9323C20.4407 19.4237 19.7168 19.4237 19.27 18.9323L18.2555 17.8165L18.2555 27.7422C18.2555 28.437 17.7425 29 17.1108 29ZM24.8892 13C25.5209 13 26.0328 13.563 26.0328 14.2578L26.0328 24.1835L27.0473 23.0677C27.4942 22.5763 28.218 22.5763 28.6649 23.0677C29.1117 23.5592 29.1117 24.3553 28.6649 24.8468L25.6975 28.1105C25.2506 28.6019 24.5267 28.6019 24.0799 28.1105L21.1125 24.8468C20.6657 24.3553 20.6657 23.5592 21.1125 23.0677C21.5593 22.5763 22.2832 22.5763 22.73 23.0677L23.7445 24.1835L23.7445 14.2578C23.7445 13.563 24.2575 13 24.8892 13Z" fill="#8B8E9C"/>
</svg>
