<svg width="14" height="14" viewBox="0 0 14 14" fill="none" xmlns="http://www.w3.org/2000/svg">
<path d="M11.6667 3.49999H9.9167C9.75548 3.49999 9.62503 3.62359 9.62503 3.78492V5.53606C9.62503 5.69739 9.75548 5.82793 9.9167 5.82793H10.2084V6.04255C10.2084 6.24635 10.0999 6.43816 9.92496 6.54305L7.58338 7.42366V2.90934H8.45838C8.56434 2.90934 8.66203 2.85175 8.71358 2.75884C8.76485 2.6662 8.762 2.55278 8.70559 2.46271L7.24727 0.127825C7.14074 -0.0426084 6.85932 -0.0426084 6.75281 0.127825L5.29449 2.46271C5.23808 2.55278 5.23523 2.6662 5.2865 2.75884C5.33805 2.85175 5.43575 2.90934 5.5417 2.90934H6.4167V9.21369L4.38328 8.56952C4.19814 8.46693 4.08335 8.2714 4.08335 8.05962V7.45538C4.59747 7.22954 4.95835 6.71663 4.95835 6.11977C4.95835 5.31515 4.3041 4.66664 3.50003 4.66664C2.69596 4.66664 2.0417 5.31515 2.0417 6.11977C2.0417 6.71663 2.40259 7.22952 2.9167 7.45538V8.05962C2.9167 8.6955 3.26164 9.28208 3.81678 9.59016L6.4167 10.5492V11.2051C5.90259 11.4309 5.5417 11.9438 5.5417 12.5407C5.5417 13.3453 6.19596 14 7.00003 14C7.8041 14 8.45835 13.3453 8.45835 12.5407C8.45835 11.9438 8.09747 11.4309 7.58335 11.2051V8.78513L10.5251 7.54402C11.0495 7.22965 11.375 6.6542 11.375 6.04255V5.82793H11.6667C11.8279 5.82793 11.9584 5.69739 11.9584 5.53606V3.78492C11.9584 3.62359 11.8279 3.49999 11.6667 3.49999Z" fill="currentColor"/>
</svg>
