<svg width="20" height="20" viewBox="0 0 20 20" fill="none" xmlns="http://www.w3.org/2000/svg">
<path d="M18 5.13889V3.19444C18 2.12208 17.103 1.25 16 1.25H3C1.346 1.25 0 2.55861 0 4.16667V15.8333C0 17.9732 1.794 18.75 3 18.75H18C19.103 18.75 20 17.8779 20 16.8056V7.08333C20 6.01097 19.103 5.13889 18 5.13889ZM16 13.8889H14V10H16V13.8889ZM3 5.13889C2.74252 5.12769 2.49941 5.02037 2.32128 4.83927C2.14315 4.65817 2.04373 4.41724 2.04373 4.16667C2.04373 3.91609 2.14315 3.67517 2.32128 3.49407C2.49941 3.31296 2.74252 3.20564 3 3.19444H16V5.13889H3Z" fill="currentColor"/>
</svg>
